<svg width="325" height="530" viewBox="0 0 325 530" fill="none" xmlns="http://www.w3.org/2000/svg">
<g clip-path="url(#clip0_911_45)">
<path fill-rule="evenodd" clip-rule="evenodd" d="M12.4808 0C5.58785 0 0 5.58065 0 12.4647V517.535C0 524.42 5.58785 530 12.4808 530H312.519C319.412 530 325 524.42 325 517.535V12.4647C325 5.58065 319.412 0 312.519 0H12.4808ZM9.98465 21.9379C9.98465 15.3292 15.3495 9.97175 21.9662 9.97175H302.534C309.151 9.97175 314.516 15.3292 314.516 21.9379V481.637C314.516 488.245 309.151 493.603 302.534 493.603H280.569C273.952 493.603 268.587 488.245 268.587 481.637V410.843C268.587 404.234 263.222 398.877 256.605 398.877H67.8955C61.279 398.877 55.914 404.234 55.914 410.843V481.637C55.914 488.245 50.549 493.603 43.9324 493.603H21.9662C15.3495 493.603 9.98465 488.245 9.98465 481.637V21.9379Z" fill="#D7C6A5"/>
<path d="M116.557 409.77C116.557 410.4 116.587 411 116.647 411.57C116.677 412.08 116.707 412.62 116.737 413.19C116.797 413.73 116.872 414.21 116.962 414.63C116.422 413.88 115.912 413.205 115.432 412.605C115.012 412.095 114.577 411.645 114.127 411.255C113.707 410.835 113.347 410.625 113.047 410.625H110.077V441.225C110.077 441.735 110.137 442.185 110.257 442.575C110.377 442.965 110.512 443.28 110.662 443.52C110.812 443.82 110.992 444.075 111.202 444.285H105.307C105.517 444.075 105.712 443.82 105.892 443.52C106.042 443.28 106.162 442.965 106.252 442.575C106.372 442.185 106.432 441.735 106.432 441.225V410.625H103.642C103.372 410.625 103.012 410.835 102.562 411.255C102.112 411.645 101.677 412.095 101.257 412.605C100.777 413.205 100.267 413.88 99.7266 414.63C99.8166 414.21 99.8916 413.73 99.9516 413.19C99.9816 412.62 100.027 412.08 100.087 411.57C100.117 411 100.132 410.4 100.132 409.77H116.557Z" fill="#020129"/>
<path d="M127.101 439.56C127.341 440.04 127.566 440.4 127.776 440.64C127.896 440.79 128.016 440.91 128.136 441H123.546C123.636 440.88 123.711 440.745 123.771 440.595C123.831 440.445 123.861 440.31 123.861 440.19C123.891 440.04 123.906 439.92 123.906 439.83C123.906 439.68 123.891 439.5 123.861 439.29L122.151 432.855H116.256L114.906 439.29C114.906 439.41 114.906 439.53 114.906 439.65C114.906 439.8 114.921 439.965 114.951 440.145C114.981 440.295 115.026 440.445 115.086 440.595C115.176 440.745 115.266 440.88 115.356 441H113.061C113.211 440.88 113.361 440.73 113.511 440.55C113.631 440.4 113.751 440.22 113.871 440.01C114.021 439.77 114.141 439.485 114.231 439.155L118.461 419.13C118.101 417.39 117.471 416.16 116.571 415.44H120.621L127.101 439.56ZM122.016 432.225L118.866 420.615L116.391 432.225H122.016Z" fill="#020129"/>
<path d="M138.982 437.805C139.102 438.495 139.252 438.96 139.432 439.2C139.612 439.44 139.807 439.56 140.017 439.56C140.167 439.56 140.302 439.515 140.422 439.425C140.572 439.335 140.707 439.23 140.827 439.11C140.947 438.99 141.067 438.855 141.187 438.705C141.187 439.185 141.067 439.605 140.827 439.965C140.647 440.265 140.362 440.52 139.972 440.73C139.612 440.91 139.132 441 138.532 441C138.382 441 138.217 441 138.037 441C137.557 440.97 137.152 440.745 136.822 440.325C136.522 439.905 136.282 439.365 136.102 438.705C135.952 438.015 135.847 437.265 135.787 436.455C135.727 435.615 135.697 434.76 135.697 433.89C135.697 433.02 135.697 432.315 135.697 431.775C135.727 431.235 135.742 430.845 135.742 430.605C135.742 430.095 135.727 429.63 135.697 429.21C135.637 428.28 135.472 427.665 135.202 427.365C134.962 427.035 134.677 426.87 134.347 426.87C134.047 426.87 133.777 426.945 133.537 427.095L131.602 431.235V438.705C131.602 439.095 131.647 439.44 131.737 439.74C131.827 440.01 131.917 440.25 132.007 440.46C132.127 440.67 132.262 440.85 132.412 441H127.732C127.882 440.85 128.032 440.67 128.182 440.46C128.272 440.25 128.362 440.01 128.452 439.74C128.542 439.44 128.587 439.095 128.587 438.705V417.69C128.587 417.27 128.542 416.925 128.452 416.655C128.362 416.385 128.272 416.16 128.182 415.98C128.032 415.77 127.882 415.59 127.732 415.44H132.412C132.262 415.59 132.127 415.77 132.007 415.98C131.917 416.16 131.827 416.385 131.737 416.655C131.647 416.925 131.602 417.27 131.602 417.69V428.67L137.002 417.105C137.092 416.805 137.137 416.595 137.137 416.475C137.167 416.325 137.182 416.22 137.182 416.16C137.182 416.04 137.167 415.935 137.137 415.845C137.077 415.665 137.017 415.53 136.957 415.44H139.792C139.582 415.56 139.372 415.725 139.162 415.935C138.952 416.115 138.742 416.34 138.532 416.61C138.322 416.85 138.127 417.165 137.947 417.555L133.852 426.375C134.362 426.075 134.812 425.865 135.202 425.745C135.592 425.625 135.952 425.565 136.282 425.565C136.882 425.565 137.347 425.775 137.677 426.195C138.007 426.585 138.247 427.125 138.397 427.815C138.547 428.475 138.637 429.24 138.667 430.11C138.727 430.98 138.757 431.865 138.757 432.765C138.757 433.665 138.757 434.565 138.757 435.465C138.787 436.335 138.862 437.115 138.982 437.805Z" fill="#020129"/>
<path d="M148.394 440.37C148.724 440.37 149.084 440.175 149.474 439.785C149.864 439.395 150.224 438.96 150.554 438.48C150.944 437.94 151.334 437.31 151.724 436.59C151.664 436.92 151.604 437.34 151.544 437.85C151.514 438.33 151.484 438.81 151.454 439.29C151.424 439.83 151.394 440.4 151.364 441H141.104C141.254 440.85 141.404 440.67 141.554 440.46C141.644 440.25 141.734 440.01 141.824 439.74C141.914 439.44 141.959 439.095 141.959 438.705V417.69C141.959 417.27 141.914 416.925 141.824 416.655C141.734 416.385 141.644 416.16 141.554 415.98C141.404 415.77 141.254 415.59 141.104 415.44H151.364C151.364 415.89 151.379 416.34 151.409 416.79C151.439 417.15 151.469 417.54 151.499 417.96C151.559 418.35 151.619 418.695 151.679 418.995C151.289 418.455 150.914 417.96 150.554 417.51C150.224 417.15 149.894 416.82 149.564 416.52C149.264 416.22 149.009 416.07 148.799 416.07H144.974V424.935H147.224C147.644 424.935 148.004 424.845 148.304 424.665C148.604 424.485 148.874 424.275 149.114 424.035C149.384 423.765 149.624 423.465 149.834 423.135V427.86C149.624 427.44 149.384 427.065 149.114 426.735C148.874 426.435 148.589 426.18 148.259 425.97C147.929 425.73 147.554 425.61 147.134 425.61H144.974V440.37H148.394Z" fill="#020129"/>
<path d="M178.006 440.19C178.006 441.72 178.186 442.995 178.546 444.015C178.936 445.065 179.356 445.905 179.806 446.535C180.316 447.285 180.901 447.885 181.561 448.335C181.441 448.335 181.306 448.335 181.156 448.335C180.676 448.335 180.061 448.245 179.311 448.065C178.591 447.885 177.856 447.48 177.106 446.85C176.356 446.25 175.711 445.41 175.171 444.33C174.661 443.25 174.406 441.87 174.406 440.19V416.925L167.521 438.255L160.096 417.015V439.47C160.096 439.98 160.156 440.445 160.276 440.865C160.396 441.255 160.531 441.57 160.681 441.81C160.831 442.08 161.011 442.32 161.221 442.53H157.576C157.786 442.32 157.981 442.08 158.161 441.81C158.311 441.57 158.431 441.255 158.521 440.865C158.641 440.445 158.701 439.98 158.701 439.47V413.19C158.701 412.59 158.581 412.08 158.341 411.66C158.131 411.24 157.876 410.88 157.576 410.58C157.246 410.25 156.871 409.98 156.451 409.77H161.446L168.511 430.605L174.361 412.38C174.331 411.93 174.256 411.54 174.136 411.21C174.046 410.88 173.926 410.61 173.776 410.4C173.626 410.16 173.461 409.95 173.281 409.77H179.131C178.921 409.98 178.741 410.22 178.591 410.49C178.441 410.73 178.306 411.045 178.186 411.435C178.066 411.825 178.006 412.29 178.006 412.83V440.19Z" fill="#020129"/>
<path d="M186.798 440.37C187.128 440.37 187.488 440.175 187.878 439.785C188.268 439.395 188.628 438.96 188.958 438.48C189.348 437.94 189.738 437.31 190.128 436.59C190.068 436.92 190.008 437.34 189.948 437.85C189.918 438.33 189.888 438.81 189.858 439.29C189.828 439.83 189.798 440.4 189.768 441H179.508C179.658 440.85 179.808 440.67 179.958 440.46C180.048 440.25 180.138 440.01 180.228 439.74C180.318 439.44 180.363 439.095 180.363 438.705V417.69C180.363 417.27 180.318 416.925 180.228 416.655C180.138 416.385 180.048 416.16 179.958 415.98C179.808 415.77 179.658 415.59 179.508 415.44H189.768C189.768 415.89 189.783 416.34 189.813 416.79C189.843 417.15 189.873 417.54 189.903 417.96C189.963 418.35 190.023 418.695 190.083 418.995C189.693 418.455 189.318 417.96 188.958 417.51C188.628 417.15 188.298 416.82 187.968 416.52C187.668 416.22 187.413 416.07 187.203 416.07H183.378V424.935H185.628C186.048 424.935 186.408 424.845 186.708 424.665C187.008 424.485 187.278 424.275 187.518 424.035C187.788 423.765 188.028 423.465 188.238 423.135V427.86C188.028 427.44 187.788 427.065 187.518 426.735C187.278 426.435 186.993 426.18 186.663 425.97C186.333 425.73 185.958 425.61 185.538 425.61H183.378V440.37H186.798Z" fill="#020129"/>
<path d="M211.135 409.77C211.135 410.4 211.165 411 211.225 411.57C211.255 412.08 211.285 412.62 211.315 413.19C211.375 413.73 211.45 414.21 211.54 414.63C211 413.88 210.49 413.205 210.01 412.605C209.59 412.095 209.155 411.645 208.705 411.255C208.285 410.835 207.925 410.625 207.625 410.625H204.655V441.225C204.655 441.735 204.715 442.185 204.835 442.575C204.955 442.965 205.09 443.28 205.24 443.52C205.39 443.82 205.57 444.075 205.78 444.285H199.885C200.095 444.075 200.29 443.82 200.47 443.52C200.62 443.28 200.74 442.965 200.83 442.575C200.95 442.185 201.01 441.735 201.01 441.225V410.625H198.22C197.95 410.625 197.59 410.835 197.14 411.255C196.69 411.645 196.255 412.095 195.835 412.605C195.355 413.205 194.845 413.88 194.305 414.63C194.395 414.21 194.47 413.73 194.53 413.19C194.56 412.62 194.605 412.08 194.665 411.57C194.695 411 194.71 410.4 194.71 409.77H211.135Z" fill="#020129"/>
<path d="M215.837 415.08C216.887 415.08 217.877 415.425 218.807 416.115C219.737 416.805 220.548 417.75 221.238 418.95C221.928 420.12 222.467 421.5 222.857 423.09C223.277 424.68 223.488 426.39 223.488 428.22C223.488 430.02 223.277 431.73 222.857 433.35C222.467 434.94 221.928 436.335 221.238 437.535C220.548 438.705 219.737 439.635 218.807 440.325C217.877 441.015 216.887 441.36 215.837 441.36C214.787 441.36 213.797 441.015 212.867 440.325C211.937 439.635 211.127 438.705 210.438 437.535C209.748 436.335 209.193 434.94 208.773 433.35C208.383 431.73 208.188 430.02 208.188 428.22C208.188 426.39 208.383 424.68 208.773 423.09C209.193 421.5 209.748 420.12 210.438 418.95C211.127 417.75 211.937 416.805 212.867 416.115C213.797 415.425 214.787 415.08 215.837 415.08ZM215.837 440.685C216.437 440.685 217.008 440.355 217.548 439.695C218.088 439.035 218.553 438.15 218.943 437.04C219.363 435.9 219.677 434.58 219.887 433.08C220.127 431.55 220.247 429.93 220.247 428.22C220.247 426.51 220.127 424.905 219.887 423.405C219.677 421.875 219.363 420.555 218.943 419.445C218.553 418.305 218.088 417.405 217.548 416.745C217.008 416.085 216.437 415.755 215.837 415.755C215.237 415.755 214.668 416.085 214.128 416.745C213.588 417.405 213.107 418.305 212.688 419.445C212.298 420.555 211.982 421.875 211.742 423.405C211.532 424.905 211.428 426.51 211.428 428.22C211.428 429.93 211.532 431.55 211.742 433.08C211.982 434.58 212.298 435.9 212.688 437.04C213.107 438.15 213.588 439.035 214.128 439.695C214.668 440.355 215.237 440.685 215.837 440.685Z" fill="#020129"/>
<path d="M230.947 480.52C231.182 481.796 231.451 482.552 231.753 482.787C232.089 483.056 232.375 483.19 232.61 483.19C232.711 483.19 232.811 483.173 232.912 483.139C233.349 482.971 233.785 482.568 234.222 481.93C234.255 482.132 234.272 482.316 234.272 482.484C234.272 482.955 234.172 483.391 233.97 483.794C233.769 484.265 233.399 484.651 232.862 484.953C232.358 485.255 231.686 485.407 230.846 485.407C230.611 485.407 230.343 485.39 230.04 485.356C229.335 485.323 228.747 485.004 228.277 484.399C227.84 483.828 227.488 483.089 227.219 482.182C226.984 481.275 226.816 480.234 226.715 479.058C226.614 477.883 226.547 476.69 226.513 475.481V467.118C226.513 466.178 226.329 465.422 225.959 464.851C225.624 464.246 225.204 463.776 224.7 463.44C224.196 463.104 223.659 462.869 223.087 462.735C222.55 462.6 222.063 462.516 221.626 462.483C221.391 462.516 221.19 462.55 221.022 462.583C220.888 462.583 220.77 462.583 220.669 462.583C220.535 462.583 220.384 462.566 220.216 462.533C221.425 462.029 222.449 461.492 223.289 460.921C224.162 460.35 224.868 459.695 225.405 458.956C225.942 458.183 226.329 457.31 226.564 456.336C226.799 455.362 226.917 454.237 226.917 452.96C226.917 451.953 226.782 451.029 226.513 450.189C226.245 449.316 225.859 448.577 225.355 447.973C224.851 447.335 224.229 446.847 223.491 446.511C222.785 446.142 221.979 445.957 221.072 445.957H219.007V478.555C219.04 479.092 219.107 479.562 219.208 479.965C219.342 480.335 219.493 480.654 219.662 480.923C219.83 481.225 220.014 481.477 220.216 481.678H213.666C213.901 481.443 214.119 481.174 214.321 480.872C214.489 480.603 214.623 480.251 214.724 479.814C214.858 479.344 214.926 478.823 214.926 478.252V448.426C214.926 447.821 214.858 447.301 214.724 446.864C214.623 446.428 214.489 446.075 214.321 445.806C214.119 445.504 213.901 445.235 213.666 445H222.08C223.356 445 224.532 445.202 225.607 445.605C226.715 446.008 227.655 446.562 228.428 447.267C229.234 447.973 229.856 448.812 230.292 449.786C230.763 450.761 230.998 451.819 230.998 452.96C230.998 453.666 230.846 454.455 230.544 455.328C230.242 456.168 229.805 457.008 229.234 457.847C228.697 458.654 228.008 459.426 227.168 460.165C226.362 460.87 225.422 461.425 224.347 461.828C224.515 461.828 224.683 461.828 224.851 461.828C226.329 461.828 227.471 462.113 228.277 462.684C229.083 463.255 229.654 464.045 229.99 465.052C230.359 466.026 230.544 467.118 230.544 468.327C230.578 469.536 230.594 470.745 230.594 471.955V474.02C230.594 474.826 230.611 475.632 230.645 476.439C230.678 477.245 230.712 478.017 230.746 478.756C230.779 479.461 230.846 480.049 230.947 480.52Z" fill="#020129"/>
<path d="M214.212 445C214.212 445.705 214.246 446.377 214.313 447.015C214.347 447.586 214.38 448.191 214.414 448.829C214.481 449.434 214.565 449.971 214.666 450.441C214.061 449.602 213.49 448.846 212.953 448.174C212.483 447.603 211.995 447.099 211.491 446.663C211.022 446.192 210.618 445.957 210.282 445.957H206.957V480.217C206.957 480.788 207.024 481.292 207.159 481.729C207.293 482.165 207.444 482.518 207.612 482.787C207.78 483.122 207.982 483.408 208.217 483.643H201.617C201.852 483.408 202.07 483.122 202.272 482.787C202.44 482.518 202.574 482.165 202.675 481.729C202.809 481.292 202.876 480.788 202.876 480.217V445.957H199.752C199.45 445.957 199.047 446.192 198.543 446.663C198.039 447.099 197.553 447.603 197.082 448.174C196.545 448.846 195.974 449.602 195.369 450.441C195.47 449.971 195.554 449.434 195.621 448.829C195.655 448.191 195.705 447.586 195.772 447.015C195.806 446.377 195.823 445.705 195.823 445H214.212Z" fill="#020129"/>
<path d="M157.368 445C157.133 445.235 156.931 445.504 156.763 445.806C156.595 446.075 156.444 446.428 156.31 446.864C156.175 447.301 156.108 447.821 156.108 448.426V480.217C156.108 480.788 156.175 481.292 156.31 481.729C156.444 482.165 156.595 482.518 156.763 482.787C156.931 483.122 157.133 483.408 157.368 483.643H150.768C151.003 483.408 151.221 483.122 151.423 482.787C151.591 482.518 151.725 482.165 151.826 481.729C151.96 481.292 152.027 480.788 152.027 480.217V448.426C152.027 447.821 151.96 447.301 151.826 446.864C151.725 446.428 151.591 446.075 151.423 445.806C151.221 445.504 151.003 445.235 150.768 445H157.368Z" fill="#020129"/>
<path d="M147.787 479.058C147.787 480.771 147.988 482.199 148.391 483.341C148.828 484.517 149.298 485.457 149.802 486.162C150.373 487.002 151.028 487.674 151.767 488.178C151.666 488.178 151.548 488.178 151.414 488.178C150.843 488.178 150.138 488.026 149.298 487.724C148.459 487.455 147.602 486.951 146.729 486.213C145.889 485.507 145.167 484.55 144.562 483.341C143.991 482.165 143.706 480.738 143.706 479.058V461.122H133.831V478.252C133.831 478.823 133.898 479.344 134.032 479.814C134.166 480.251 134.318 480.603 134.486 480.872C134.654 481.174 134.855 481.443 135.09 481.678H128.49C128.725 481.443 128.944 481.174 129.145 480.872C129.313 480.603 129.447 480.251 129.548 479.814C129.682 479.344 129.75 478.823 129.75 478.252V448.426C129.75 447.821 129.682 447.301 129.548 446.864C129.447 446.428 129.313 446.075 129.145 445.806C128.944 445.504 128.725 445.235 128.49 445H135.09C134.855 445.235 134.654 445.504 134.486 445.806C134.318 446.075 134.166 446.428 134.032 446.864C133.898 447.301 133.831 447.821 133.831 448.426V460.165H143.706V448.426C143.706 447.821 143.638 447.301 143.504 446.864C143.403 446.428 143.269 446.075 143.101 445.806C142.9 445.504 142.681 445.235 142.446 445H149.046C148.811 445.235 148.61 445.504 148.442 445.806C148.274 446.075 148.122 446.428 147.988 446.864C147.854 447.301 147.787 447.821 147.787 448.426V479.058Z" fill="#020129"/>
<path d="M121.782 461.878C122.857 462.818 123.915 463.826 124.956 464.901C126.031 465.942 126.904 467.101 127.576 468.377C128.281 469.755 128.768 471.048 129.037 472.257C129.339 473.466 129.49 474.524 129.49 475.431C129.49 476.069 129.44 476.724 129.339 477.396C129.07 478.84 128.567 480.184 127.827 481.426C127.089 482.669 126.098 483.694 124.855 484.5C124.015 485.037 123.091 485.44 122.084 485.709C121.11 486.011 120.102 486.162 119.061 486.162C118.053 486.162 117.046 486.011 116.038 485.709C115.064 485.44 114.174 485.02 113.368 484.449C112.595 483.912 111.924 483.274 111.352 482.535C110.815 481.829 110.379 481.057 110.042 480.217C109.74 479.344 109.573 478.638 109.539 478.101C109.505 477.53 109.488 477.161 109.488 476.993C109.488 476.254 109.573 475.515 109.74 474.776C110.143 473.164 110.714 472.005 111.453 471.3C112.226 470.561 112.999 470.057 113.771 469.788C114.375 469.587 115.014 469.486 115.685 469.486C115.988 469.486 116.29 469.503 116.592 469.536C115.45 469.536 114.476 469.805 113.67 470.342C113.334 470.577 113.015 470.88 112.713 471.249C112.41 471.585 112.175 472.038 112.007 472.609C111.84 473.147 111.739 473.634 111.705 474.071C111.705 474.507 111.705 474.793 111.705 474.927C111.705 475.599 111.789 476.371 111.957 477.245C112.259 478.756 112.881 480.116 113.821 481.326C114.762 482.568 116.005 483.425 117.549 483.895C118.255 484.097 118.826 484.214 119.262 484.248C119.733 484.281 120.052 484.298 120.22 484.298C120.791 484.298 121.378 484.214 121.983 484.046C122.622 483.912 123.243 483.66 123.847 483.29C124.486 482.921 125.023 482.417 125.459 481.779C126.299 480.57 126.719 479.344 126.719 478.101C126.719 477.866 126.669 477.328 126.568 476.489C126.467 475.615 126.014 474.474 125.208 473.063C124.435 471.619 123.478 470.275 122.336 469.032C121.194 467.756 120.119 466.681 119.111 465.808C118.171 465.002 117.18 464.213 116.139 463.44C115.131 462.667 114.224 461.794 113.418 460.82C112.142 459.275 111.352 457.931 111.05 456.789C110.748 455.648 110.597 454.707 110.597 453.968C110.597 452.96 110.782 451.885 111.151 450.744C111.386 449.971 111.772 449.249 112.31 448.577C112.847 447.905 113.468 447.318 114.174 446.814C114.879 446.31 115.635 445.907 116.441 445.605C117.247 445.269 118.053 445.084 118.859 445.05C119.196 445.017 119.531 445 119.867 445C120.74 445 121.664 445.084 122.638 445.252C123.646 445.42 124.821 445.773 126.165 446.31L126.568 452.053C125.796 450.408 124.804 449.098 123.595 448.124C122.42 447.116 121.16 446.528 119.817 446.36C119.548 446.327 119.296 446.31 119.061 446.31C118.289 446.31 117.516 446.495 116.743 446.864C115.971 447.234 115.316 447.804 114.778 448.577C114.208 449.417 113.905 450.122 113.872 450.693C113.872 451.264 113.872 451.567 113.872 451.6C113.872 452.641 114.073 453.598 114.476 454.472C114.846 455.278 115.333 456 115.937 456.638C116.542 457.243 117.163 457.831 117.801 458.402C118.473 459.006 119.128 459.594 119.766 460.165C120.438 460.736 121.11 461.307 121.782 461.878Z" fill="#020129"/>
<path d="M108.977 481.477C109.145 481.846 109.313 482.165 109.481 482.434C109.648 482.703 109.817 482.921 109.985 483.089C110.152 483.324 110.32 483.509 110.489 483.643H104.14C104.275 483.475 104.375 483.257 104.443 482.988C104.51 482.787 104.56 482.568 104.594 482.333C104.627 482.098 104.644 481.913 104.644 481.779C104.644 481.544 104.627 481.292 104.594 481.023L102.679 473.819C102.679 473.819 102.662 473.819 102.629 473.819C102.629 473.785 102.629 473.751 102.629 473.718L102.125 471.703C101.688 471.031 101.067 470.577 100.261 470.342C99.4882 470.073 98.7998 469.939 98.1952 469.939C97.5906 469.906 97.1372 469.889 96.8349 469.889C96.3311 469.889 95.8776 469.906 95.4746 469.939C95.105 469.939 94.7857 469.939 94.5173 469.939C94.1811 469.939 93.9128 469.922 93.7112 469.889C93.6773 469.855 93.5935 469.838 93.4593 469.838L91.5448 479.109C91.5448 479.277 91.5448 479.428 91.5448 479.562C91.5448 479.831 91.5613 480.083 91.5952 480.318C91.662 480.587 91.7294 480.839 91.7967 481.074C91.9309 481.309 92.0651 481.51 92.1997 481.678H88.7738C88.9753 481.51 89.1933 481.292 89.4287 481.023C89.5964 480.788 89.7645 480.503 89.9326 480.167C90.1341 479.865 90.3187 479.478 90.4868 479.008L92.4517 469.587C91.8805 469.385 91.3263 469.133 90.789 468.831C90.2513 468.529 89.7979 468.125 89.4287 467.622C89.0925 467.151 88.8406 466.647 88.673 466.11C88.5383 465.573 88.4376 465.019 88.3707 464.448C88.3368 464.145 88.3203 463.86 88.3203 463.591C88.3203 463.322 88.3368 462.986 88.3707 462.583C88.4376 462.147 88.5049 461.643 88.5722 461.072C88.6057 462.315 88.9918 463.44 89.731 464.448C90.5032 465.455 91.4605 466.11 92.6028 466.412C92.6697 466.446 92.737 466.463 92.8043 466.463H92.9051C93.0059 466.463 93.0727 466.48 93.1066 466.513L97.1876 447.015C97.3218 446.444 97.5403 445.974 97.8426 445.605C98.1449 445.202 98.5983 445 99.2029 445L108.977 481.477ZM94.1647 466.614C94.467 466.647 94.7693 466.664 95.0715 466.664C95.4073 466.664 95.743 466.681 96.0792 466.715C97.1203 466.849 98.111 467.168 99.0517 467.672C99.992 468.142 100.815 468.763 101.52 469.536L97.0364 452.86L94.1647 466.614Z" fill="#020129"/>
<path d="M253.928 481.477C254.096 481.846 254.264 482.165 254.432 482.434C254.6 482.703 254.768 482.921 254.936 483.089C255.103 483.324 255.272 483.509 255.44 483.643H249.092C249.226 483.475 249.326 483.257 249.394 482.988C249.461 482.787 249.511 482.568 249.545 482.333C249.578 482.098 249.595 481.913 249.595 481.779C249.595 481.544 249.578 481.292 249.545 481.023L247.63 473.819C247.63 473.819 247.613 473.819 247.58 473.819C247.58 473.785 247.58 473.751 247.58 473.718L247.076 471.703C246.639 471.031 246.018 470.577 245.212 470.342C244.439 470.073 243.751 469.939 243.146 469.939C242.542 469.906 242.088 469.889 241.786 469.889C241.282 469.889 240.829 469.906 240.426 469.939C240.056 469.939 239.737 469.939 239.469 469.939C239.132 469.939 238.864 469.922 238.662 469.889C238.629 469.855 238.545 469.838 238.41 469.838L236.496 479.109C236.496 479.277 236.496 479.428 236.496 479.562C236.496 479.831 236.512 480.083 236.546 480.318C236.613 480.587 236.681 480.839 236.748 481.074C236.882 481.309 237.016 481.51 237.151 481.678H233.725C233.926 481.51 234.144 481.292 234.38 481.023C234.548 480.788 234.716 480.503 234.884 480.167C235.085 479.865 235.27 479.478 235.438 479.008L237.403 469.587C236.832 469.385 236.277 469.133 235.74 468.831C235.203 468.529 234.749 468.125 234.38 467.622C234.044 467.151 233.792 466.647 233.624 466.11C233.49 465.573 233.389 465.019 233.322 464.448C233.288 464.145 233.271 463.86 233.271 463.591C233.271 463.322 233.288 462.986 233.322 462.583C233.389 462.147 233.456 461.643 233.523 461.072C233.557 462.315 233.943 463.44 234.682 464.448C235.454 465.455 236.412 466.11 237.554 466.412C237.621 466.446 237.688 466.463 237.756 466.463H237.856C237.957 466.463 238.024 466.48 238.058 466.513L242.139 447.015C242.273 446.444 242.491 445.974 242.794 445.605C243.096 445.202 243.549 445 244.154 445L253.928 481.477ZM239.116 466.614C239.418 466.647 239.72 466.664 240.023 466.664C240.358 466.664 240.694 466.681 241.03 466.715C242.071 466.849 243.062 467.168 244.003 467.672C244.943 468.142 245.766 468.763 246.472 469.536L241.988 452.86L239.116 466.614Z" fill="#020129"/>
<path d="M194.858 481.477C195.026 481.846 195.194 482.165 195.362 482.434C195.529 482.703 195.697 482.921 195.866 483.089C196.033 483.324 196.201 483.509 196.369 483.643H190.021C190.155 483.475 190.256 483.257 190.323 482.988C190.39 482.787 190.441 482.568 190.475 482.333C190.508 482.098 190.525 481.913 190.525 481.779C190.525 481.544 190.508 481.292 190.475 481.023L188.56 473.819C188.56 473.819 188.543 473.819 188.51 473.819C188.51 473.785 188.51 473.751 188.51 473.718L188.006 471.703C187.569 471.031 186.948 470.577 186.142 470.342C185.369 470.073 184.681 469.939 184.076 469.939C183.472 469.906 183.018 469.889 182.716 469.889C182.212 469.889 181.759 469.906 181.355 469.939C180.986 469.939 180.667 469.939 180.398 469.939C180.062 469.939 179.794 469.922 179.592 469.889C179.558 469.855 179.474 469.838 179.34 469.838L177.426 479.109C177.426 479.277 177.426 479.428 177.426 479.562C177.426 479.831 177.442 480.083 177.476 480.318C177.543 480.587 177.61 480.839 177.678 481.074C177.812 481.309 177.946 481.51 178.081 481.678H174.655C174.856 481.51 175.074 481.292 175.31 481.023C175.477 480.788 175.645 480.503 175.813 480.167C176.015 479.865 176.2 479.478 176.368 479.008L178.333 469.587C177.761 469.385 177.207 469.133 176.67 468.831C176.132 468.529 175.679 468.125 175.31 467.622C174.973 467.151 174.721 466.647 174.554 466.11C174.419 465.573 174.318 465.019 174.252 464.448C174.218 464.145 174.201 463.86 174.201 463.591C174.201 463.322 174.218 462.986 174.252 462.583C174.318 462.147 174.386 461.643 174.453 461.072C174.487 462.315 174.873 463.44 175.612 464.448C176.384 465.455 177.341 466.11 178.484 466.412C178.551 466.446 178.618 466.463 178.685 466.463H178.786C178.887 466.463 178.954 466.48 178.987 466.513L183.068 447.015C183.203 446.444 183.421 445.974 183.723 445.605C184.026 445.202 184.479 445 185.084 445L194.858 481.477ZM180.046 466.614C180.348 466.647 180.65 466.664 180.952 466.664C181.288 466.664 181.624 466.681 181.96 466.715C183.001 466.849 183.992 467.168 184.933 467.672C185.873 468.142 186.696 468.763 187.401 469.536L182.917 452.86L180.046 466.614Z" fill="#020129"/>
<path d="M86.3184 478.664C86.4818 479.703 86.686 480.403 86.9311 480.764C87.1762 481.126 87.4418 481.306 87.7277 481.306C87.932 481.306 88.1158 481.238 88.2792 481.103C88.4834 480.967 88.6672 480.809 88.8306 480.629C88.994 480.448 89.1574 480.245 89.3208 480.019C89.3208 480.742 89.1574 481.374 88.8306 481.916C88.5855 482.367 88.1975 482.751 87.6664 483.067C87.1762 483.338 86.5227 483.474 85.7057 483.474C85.5014 483.474 85.2768 483.474 85.0317 483.474C84.3781 483.429 83.8266 483.09 83.3773 482.458C82.9688 481.826 82.642 481.013 82.3969 480.019C82.1926 478.981 82.0497 477.852 81.968 476.632C81.8863 475.368 81.8454 474.081 81.8454 472.772C81.8454 471.462 81.8454 470.401 81.8454 469.588C81.8863 468.775 81.9067 468.188 81.9067 467.827C81.9067 467.059 81.8863 466.359 81.8454 465.727C81.7637 464.327 81.5391 463.401 81.1714 462.95C80.8446 462.453 80.4566 462.205 80.0072 462.205C79.5987 462.205 79.2311 462.318 78.9043 462.543L76.2695 468.775V480.019C76.2695 480.606 76.3308 481.126 76.4534 481.577C76.5759 481.984 76.6985 482.345 76.821 482.661C76.9844 482.977 77.1682 483.248 77.3725 483.474H71C71.2042 483.248 71.4085 482.977 71.6127 482.661C71.7353 482.345 71.8578 481.984 71.9804 481.577C72.1029 481.126 72.1642 480.606 72.1642 480.019V448.387C72.1642 447.755 72.1029 447.235 71.9804 446.829C71.8578 446.422 71.7353 446.084 71.6127 445.813C71.4085 445.497 71.2042 445.226 71 445H77.3725C77.1682 445.226 76.9844 445.497 76.821 445.813C76.6985 446.084 76.5759 446.422 76.4534 446.829C76.3308 447.235 76.2695 447.755 76.2695 448.387V464.914L83.6224 447.506C83.7449 447.055 83.8062 446.739 83.8062 446.558C83.847 446.332 83.8675 446.174 83.8675 446.084C83.8675 445.903 83.847 445.745 83.8062 445.61C83.7245 445.339 83.6428 445.135 83.5611 445H87.4213C87.1354 445.181 86.8495 445.429 86.5635 445.745C86.2776 446.016 85.9916 446.355 85.7057 446.761C85.4197 447.122 85.1542 447.597 84.9091 448.184L79.3332 461.46C80.0276 461.008 80.6404 460.692 81.1714 460.511C81.7025 460.331 82.1927 460.24 82.642 460.24C83.459 460.24 84.0921 460.557 84.5415 461.189C84.9908 461.776 85.3176 462.589 85.5219 463.627C85.7261 464.621 85.8486 465.772 85.8895 467.082C85.9712 468.391 86.0121 469.723 86.0121 471.078C86.0121 472.433 86.0121 473.788 86.0121 475.142C86.0529 476.452 86.155 477.626 86.3184 478.664Z" fill="#020129"/>
<path d="M167.6 482.046H163.942V472.421L156.367 445H160.129L162.983 455.221L165.24 466.896H166.407L168.534 455.221L171.388 445H175.201L167.6 472.473V482.046Z" fill="#020129"/>
<path d="M105.098 518V505.22H108.608V518H105.098ZM110.811 518V505.22H114.321V518H110.811ZM126.478 508.28H122.806V518H119.296V508.28H115.606V505.22H126.478V508.28ZM133.14 505.22L135.642 513.95L138.108 505.22H141.798L137.388 518H133.896L129.432 505.22H133.14ZM144.683 505.22H148.607L152.675 518H149.111L148.337 515.498H144.935L144.179 518H140.597L144.683 505.22ZM147.779 513.158L146.645 508.658L145.457 513.158H147.779ZM153.737 518V505.22H159.605C160.229 505.22 160.805 505.346 161.333 505.598C161.861 505.85 162.317 506.192 162.701 506.624C163.085 507.044 163.379 507.518 163.583 508.046C163.799 508.574 163.907 509.108 163.907 509.648C163.907 510.14 163.835 510.614 163.691 511.07C163.547 511.526 163.337 511.946 163.061 512.33C162.785 512.702 162.455 513.026 162.071 513.302L164.771 518H160.919L158.669 514.076H157.247V518H153.737ZM157.247 511.016H159.461C159.605 511.016 159.743 510.962 159.875 510.854C160.007 510.746 160.115 510.59 160.199 510.386C160.295 510.182 160.343 509.936 160.343 509.648C160.343 509.348 160.289 509.102 160.181 508.91C160.085 508.706 159.959 508.55 159.803 508.442C159.659 508.334 159.515 508.28 159.371 508.28H157.247V511.016ZM168.835 505.22H172.759L176.827 518H173.263L172.489 515.498H169.087L168.331 518H164.749L168.835 505.22ZM171.931 513.158L170.797 508.658L169.609 513.158H171.931ZM181.399 511.718V518H177.889V505.22H180.625L185.755 511.718V505.22H189.265V518H186.475L181.399 511.718ZM194.411 505.22H198.335L202.403 518H198.839L198.065 515.498H194.663L193.907 518H190.325L194.411 505.22ZM197.507 513.158L196.373 508.658L195.185 513.158H197.507ZM211.065 509.396C211.065 509.396 210.963 509.336 210.759 509.216C210.555 509.096 210.285 508.964 209.949 508.82C209.613 508.664 209.247 508.526 208.851 508.406C208.455 508.286 208.065 508.226 207.681 508.226C207.381 508.226 207.135 508.274 206.943 508.37C206.751 508.466 206.655 508.628 206.655 508.856C206.655 509.072 206.751 509.246 206.943 509.378C207.135 509.51 207.405 509.63 207.753 509.738C208.113 509.846 208.539 509.978 209.031 510.134C209.823 510.374 210.507 510.65 211.083 510.962C211.659 511.274 212.103 511.676 212.415 512.168C212.727 512.648 212.883 513.29 212.883 514.094C212.883 514.862 212.745 515.51 212.469 516.038C212.193 516.554 211.821 516.968 211.353 517.28C210.885 517.592 210.363 517.82 209.787 517.964C209.211 518.096 208.623 518.162 208.023 518.162C207.411 518.162 206.769 518.102 206.097 517.982C205.437 517.85 204.795 517.676 204.171 517.46C203.547 517.232 202.977 516.968 202.461 516.668L203.973 513.59C203.973 513.59 204.093 513.662 204.333 513.806C204.573 513.95 204.891 514.112 205.287 514.292C205.683 514.472 206.121 514.634 206.601 514.778C207.093 514.922 207.585 514.994 208.077 514.994C208.461 514.994 208.725 514.946 208.869 514.85C209.025 514.742 209.103 514.604 209.103 514.436C209.103 514.184 208.971 513.992 208.707 513.86C208.443 513.716 208.095 513.584 207.663 513.464C207.243 513.332 206.775 513.182 206.259 513.014C205.515 512.762 204.903 512.48 204.423 512.168C203.943 511.844 203.589 511.466 203.361 511.034C203.133 510.59 203.019 510.056 203.019 509.432C203.019 508.484 203.241 507.692 203.685 507.056C204.129 506.42 204.711 505.94 205.431 505.616C206.163 505.28 206.949 505.112 207.789 505.112C208.413 505.112 209.013 505.19 209.589 505.346C210.177 505.49 210.723 505.67 211.227 505.886C211.743 506.102 212.193 506.306 212.577 506.498L211.065 509.396ZM214.434 518V505.22H217.944V518H214.434Z" fill="#020129"/>
</g>
<defs>
<clipPath id="clip0_911_45">
<rect width="325" height="530" fill="white"/>
</clipPath>
</defs>
</svg>
