<svg width="1019" height="253" viewBox="0 0 1019 253" fill="none" xmlns="http://www.w3.org/2000/svg">
<g filter="url(#filter0_i_985_60)">
<path d="M43.1836 249H3.98438V246.832C6.05469 246.832 7.75391 246.637 9.08203 246.246C10.4102 245.816 11.4648 245.25 12.2461 244.547C13.0273 243.805 13.5547 242.965 13.8281 242.027C14.1406 241.09 14.2969 240.094 14.2969 239.039V150.973C14.2969 150.191 14.1406 149.352 13.8281 148.453C13.5547 147.555 13.0273 146.734 12.2461 145.992C11.5039 145.211 10.4688 144.566 9.14062 144.059C7.8125 143.551 6.09375 143.297 3.98438 143.297V141.129H32.8711V238.688C32.8711 239.469 32.9883 240.328 33.2227 241.266C33.4961 242.203 33.9844 243.082 34.6875 243.902C35.4297 244.723 36.4648 245.426 37.793 246.012C39.1602 246.559 40.957 246.832 43.1836 246.832V249ZM99.6094 248.297C96.0547 249.742 92.7344 250.719 89.6484 251.227C86.6016 251.734 83.8477 251.988 81.3867 251.988C77.9102 251.988 74.5898 251.324 71.4258 249.996C68.2617 248.668 65.2539 246.91 62.4023 244.723C59.5898 242.535 56.9141 240.035 54.375 237.223C51.875 234.41 49.4922 231.539 47.2266 228.609C45 225.641 42.8906 222.711 40.8984 219.82C38.9453 216.93 37.1094 214.332 35.3906 212.027C39.8438 208.551 44.043 204.82 47.9883 200.836C49.668 199.156 51.3672 197.34 53.0859 195.387C54.8438 193.395 56.5039 191.324 58.0664 189.176C59.668 186.988 61.1328 184.742 62.4609 182.438C63.7891 180.094 64.8828 177.73 65.7422 175.348C65.8203 175.152 65.8789 174.957 65.918 174.762C65.957 174.566 65.9766 174.352 65.9766 174.117C65.9766 173.414 65.7812 172.652 65.3906 171.832C65.0391 171.012 64.4336 170.25 63.5742 169.547C62.7539 168.844 61.6602 168.277 60.293 167.848C58.9648 167.379 57.3438 167.145 55.4297 167.145V164.977H87.5977C86.3086 170.133 84.4922 174.879 82.1484 179.215C79.8438 183.512 77.1875 187.418 74.1797 190.934C71.2109 194.449 67.9883 197.555 64.5117 200.25C61.0742 202.945 57.5781 205.27 54.0234 207.223C58.5938 212.418 62.8125 217.398 66.6797 222.164C70.5859 226.93 74.1602 231.129 77.4023 234.762C80.6836 238.395 83.6328 241.305 86.25 243.492C88.9062 245.641 91.2695 246.715 93.3398 246.715C93.8867 246.715 94.6484 246.656 95.625 246.539C96.6016 246.422 97.6562 246.129 98.7891 245.66L99.6094 248.297ZM198.809 245.895C195.254 247.34 192.012 248.316 189.082 248.824C186.152 249.332 183.516 249.586 181.172 249.586C179.297 249.586 177.676 249.469 176.309 249.234C174.941 249.039 173.77 248.785 172.793 248.473C171.66 248.121 170.684 247.73 169.863 247.301C168.145 246.324 166.641 245.055 165.352 243.492C164.062 241.93 162.891 240.25 161.836 238.453C160.82 236.656 159.902 234.801 159.082 232.887C158.262 230.973 157.461 229.176 156.68 227.496L155.215 224.391C151.27 225.523 147.578 226.832 144.141 228.316C140.742 229.762 137.715 231.207 135.059 232.652C132.402 234.059 130.156 235.367 128.32 236.578C126.523 237.75 125.254 238.609 124.512 239.156C123.066 240.758 121.445 242.184 119.648 243.434C117.852 244.684 115.84 245.758 113.613 246.656C111.387 247.516 108.906 248.18 106.172 248.648C103.438 249.117 100.43 249.352 97.1484 249.352L96.5625 246.832C100.352 246.207 103.613 244.996 106.348 243.199C109.121 241.402 111.504 239.195 113.496 236.578C115.488 233.922 117.188 230.953 118.594 227.672C120 224.352 121.25 220.855 122.344 217.184C122.969 215.074 123.789 212.848 124.805 210.504C125.859 208.16 127.109 205.895 128.555 203.707C130.039 201.48 131.719 199.41 133.594 197.496C135.508 195.543 137.676 193.902 140.098 192.574C139.434 191.324 138.77 190.055 138.105 188.766C137.48 187.438 136.875 186.109 136.289 184.781C135.469 183.219 134.648 181.5 133.828 179.625C133.008 177.711 132.031 175.953 130.898 174.352C129.805 172.711 128.496 171.344 126.973 170.25C125.488 169.156 123.633 168.609 121.406 168.609C119.844 168.609 118.301 168.785 116.777 169.137C115.293 169.488 113.867 169.918 112.5 170.426L111.68 168.023C115.078 166.891 118.516 165.934 121.992 165.152C125.508 164.332 128.984 163.922 132.422 163.922C134.062 163.922 135.684 164.039 137.285 164.273C138.887 164.469 140.43 164.84 141.914 165.387C143.203 165.855 144.453 166.637 145.664 167.73C146.875 168.785 148.027 170.055 149.121 171.539C150.215 172.984 151.23 174.547 152.168 176.227C153.145 177.906 154.043 179.586 154.863 181.266C155.723 182.945 156.484 184.547 157.148 186.07C157.852 187.555 158.457 188.844 158.965 189.938C162.402 197.32 165.82 204.723 169.219 212.145C172.617 219.527 176.27 226.812 180.176 234C180.879 235.289 181.621 236.559 182.402 237.809C183.223 239.059 184.121 240.172 185.098 241.148C186.113 242.125 187.227 242.906 188.438 243.492C189.648 244.078 191.016 244.352 192.539 244.312C193.086 244.312 193.828 244.254 194.766 244.137C195.742 244.02 196.797 243.727 197.93 243.258L198.809 245.895ZM143.379 199.312C142.363 200.953 141.426 202.652 140.566 204.41C139.746 206.168 138.984 207.965 138.281 209.801C137.578 211.598 136.934 213.395 136.348 215.191C135.762 216.988 135.176 218.707 134.59 220.348C134.004 222.145 133.359 223.902 132.656 225.621C131.992 227.301 131.23 228.941 130.371 230.543C133.301 228.824 136.738 227.027 140.684 225.152C144.629 223.277 148.848 221.676 153.34 220.348L143.379 199.312ZM221.25 250.582C217.617 250.582 214.668 250.504 212.402 250.348C210.137 250.191 208.262 249.996 206.777 249.762C205.293 249.566 204.062 249.391 203.086 249.234C202.148 249.078 201.191 249 200.215 249C200.645 247.242 200.957 245.641 201.152 244.195C201.348 242.711 201.445 241.344 201.445 240.094C201.445 238.336 201.289 236.715 200.977 235.23C200.664 233.707 200.293 232.105 199.863 230.426L202.5 230.309C203.594 232.77 205.234 235.035 207.422 237.105C209.609 239.137 212.051 240.914 214.746 242.438C217.441 243.922 220.254 245.094 223.184 245.953C226.113 246.773 228.906 247.184 231.562 247.184C234.727 247.184 237.637 246.637 240.293 245.543C242.949 244.449 245.234 243.004 247.148 241.207C249.062 239.371 250.547 237.301 251.602 234.996C252.695 232.652 253.242 230.25 253.242 227.789C253.242 225.094 252.617 222.906 251.367 221.227C250.156 219.508 248.516 218.141 246.445 217.125C244.414 216.109 242.07 215.348 239.414 214.84C236.797 214.332 234.102 213.922 231.328 213.609C229.258 213.375 226.992 213.102 224.531 212.789C222.109 212.477 219.668 212.008 217.207 211.383C214.746 210.758 212.383 209.938 210.117 208.922C207.852 207.867 205.84 206.539 204.082 204.938C202.324 203.336 200.918 201.383 199.863 199.078C198.809 196.773 198.281 194.02 198.281 190.816C198.281 187.027 199.023 183.727 200.508 180.914C201.992 178.102 203.945 175.699 206.367 173.707C208.828 171.676 211.641 170.016 214.805 168.727C217.969 167.398 221.211 166.363 224.531 165.621C227.891 164.84 231.211 164.312 234.492 164.039C237.812 163.727 240.84 163.57 243.574 163.57C245.957 163.57 248.184 163.648 250.254 163.805C252.363 163.961 254.297 164.137 256.055 164.332C257.852 164.488 259.492 164.645 260.977 164.801C262.5 164.918 263.887 164.977 265.137 164.977C264.707 166.812 264.395 168.453 264.199 169.898C264.043 171.305 263.965 172.672 263.965 174C263.965 175.68 264.102 177.281 264.375 178.805C264.648 180.289 265.02 181.891 265.488 183.609L262.852 183.727C262.227 182.281 261.641 180.855 261.094 179.449C260.547 178.043 259.883 176.734 259.102 175.523C258.359 174.273 257.422 173.141 256.289 172.125C255.195 171.07 253.77 170.172 252.012 169.43C250.293 168.648 248.164 168.062 245.625 167.672C243.125 167.242 240.078 167.027 236.484 167.027C234.062 167.027 231.699 167.457 229.395 168.316C227.129 169.176 225.098 170.367 223.301 171.891C221.543 173.375 220.117 175.172 219.023 177.281C217.93 179.352 217.383 181.617 217.383 184.078C217.383 186.227 217.773 188.062 218.555 189.586C219.375 191.109 220.43 192.398 221.719 193.453C223.008 194.508 224.453 195.367 226.055 196.031C227.695 196.695 229.316 197.223 230.918 197.613C232.559 197.965 234.102 198.219 235.547 198.375C237.031 198.531 238.262 198.648 239.238 198.727C241.074 198.883 243.164 199.117 245.508 199.43C247.852 199.742 250.234 200.23 252.656 200.895C255.078 201.52 257.441 202.359 259.746 203.414C262.09 204.469 264.16 205.836 265.957 207.516C267.793 209.195 269.258 211.227 270.352 213.609C271.445 215.953 271.992 218.746 271.992 221.988C271.992 226.246 271.25 229.918 269.766 233.004C268.32 236.051 266.348 238.648 263.848 240.797C261.348 242.906 258.418 244.605 255.059 245.895C251.738 247.145 248.184 248.121 244.395 248.824C240.645 249.527 236.777 249.996 232.793 250.23C228.848 250.465 225 250.582 221.25 250.582ZM319.512 249H280.312V246.832C282.422 246.832 284.141 246.617 285.469 246.188C286.836 245.719 287.891 245.113 288.633 244.371C289.414 243.629 289.941 242.77 290.215 241.793C290.488 240.816 290.625 239.781 290.625 238.688V150.973C290.625 150.191 290.469 149.352 290.156 148.453C289.883 147.555 289.355 146.734 288.574 145.992C287.832 145.211 286.797 144.566 285.469 144.059C284.141 143.551 282.422 143.297 280.312 143.297V141.129H309.199V171.129C310.527 169.996 312.031 168.922 313.711 167.906C315.43 166.852 317.305 165.934 319.336 165.152C321.406 164.371 323.652 163.746 326.074 163.277C328.535 162.809 331.191 162.574 334.043 162.574C337.559 162.574 341.074 162.945 344.59 163.688C348.105 164.43 351.465 165.543 354.668 167.027C357.91 168.512 360.918 170.367 363.691 172.594C366.465 174.781 368.867 177.34 370.898 180.27C372.93 183.199 374.531 186.48 375.703 190.113C376.875 193.746 377.461 197.73 377.461 202.066C377.461 206.793 376.797 211.148 375.469 215.133C374.141 219.078 372.383 222.691 370.195 225.973C368.047 229.215 365.586 232.145 362.812 234.762C360.039 237.34 357.207 239.625 354.316 241.617C347.52 246.305 339.805 250.055 331.172 252.867L329.473 251.402C334.59 248.473 339.16 244.645 343.184 239.918C344.902 237.926 346.582 235.621 348.223 233.004C349.863 230.387 351.328 227.457 352.617 224.215C353.906 220.973 354.941 217.418 355.723 213.551C356.543 209.645 356.953 205.387 356.953 200.777C356.953 195.113 356.328 190.152 355.078 185.895C353.867 181.637 352.168 178.102 349.98 175.289C347.793 172.438 345.195 170.309 342.188 168.902C339.219 167.496 335.977 166.793 332.461 166.793C329.297 166.793 326.309 167.359 323.496 168.492C320.723 169.586 318.301 171.168 316.23 173.238C314.16 175.27 312.5 177.75 311.25 180.68C310 183.57 309.316 186.832 309.199 190.465V238.688C309.199 239.469 309.316 240.328 309.551 241.266C309.824 242.203 310.312 243.082 311.016 243.902C311.758 244.723 312.793 245.426 314.121 246.012C315.488 246.559 317.285 246.832 319.512 246.832V249ZM426.328 249H387.07V246.832C389.18 246.832 390.898 246.617 392.227 246.188C393.594 245.719 394.648 245.113 395.391 244.371C396.172 243.629 396.699 242.77 396.973 241.793C397.246 240.816 397.383 239.781 397.383 238.688V174.82C397.383 174.039 397.227 173.199 396.914 172.301C396.641 171.402 396.113 170.582 395.332 169.84C394.59 169.059 393.555 168.414 392.227 167.906C390.898 167.398 389.18 167.145 387.07 167.145V164.977H426.328V167.145C424.18 167.145 422.422 167.379 421.055 167.848C419.727 168.277 418.672 168.883 417.891 169.664C417.148 170.406 416.641 171.266 416.367 172.242C416.094 173.219 415.957 174.254 415.957 175.348V238.688C415.957 239.469 416.074 240.328 416.309 241.266C416.582 242.203 417.07 243.082 417.773 243.902C418.516 244.723 419.57 245.426 420.938 246.012C422.305 246.559 424.102 246.832 426.328 246.832V249ZM494.355 249H455.156V246.832C457.227 246.832 458.926 246.637 460.254 246.246C461.582 245.816 462.637 245.25 463.418 244.547C464.199 243.805 464.727 242.965 465 242.027C465.312 241.09 465.469 240.094 465.469 239.039V214.664L441.68 175.348H441.562C441.094 174.566 440.449 173.707 439.629 172.77C438.848 171.793 437.852 170.895 436.641 170.074C435.43 169.254 433.984 168.57 432.305 168.023C430.625 167.438 428.672 167.145 426.445 167.145V164.977H466.875V167.145C464.297 167.145 462.539 167.457 461.602 168.082C460.664 168.707 460.195 169.527 460.195 170.543C460.195 171.246 460.352 172.008 460.664 172.828C460.977 173.648 461.367 174.488 461.836 175.348L482.637 208.336C486.23 203.844 489.609 198.902 492.773 193.512C495.938 188.121 498.984 182.066 501.914 175.348C502.578 173.941 502.91 172.73 502.91 171.715C502.91 170.387 502.285 169.293 501.035 168.434C499.824 167.574 497.715 167.145 494.707 167.145V164.977H520.664C518.086 169.156 515.332 173.453 512.402 177.867C509.512 182.281 506.504 186.637 503.379 190.934C500.293 195.191 497.109 199.312 493.828 203.297C490.586 207.281 487.324 210.914 484.043 214.195V239.156C484.043 239.938 484.18 240.777 484.453 241.676C484.727 242.574 485.234 243.414 485.977 244.195C486.758 244.938 487.812 245.562 489.141 246.07C490.508 246.578 492.246 246.832 494.355 246.832V249ZM617.871 245.895C614.316 247.34 611.074 248.316 608.145 248.824C605.215 249.332 602.578 249.586 600.234 249.586C598.359 249.586 596.738 249.469 595.371 249.234C594.004 249.039 592.832 248.785 591.855 248.473C590.723 248.121 589.746 247.73 588.926 247.301C587.207 246.324 585.703 245.055 584.414 243.492C583.125 241.93 581.953 240.25 580.898 238.453C579.883 236.656 578.965 234.801 578.145 232.887C577.324 230.973 576.523 229.176 575.742 227.496L574.277 224.391C570.332 225.523 566.641 226.832 563.203 228.316C559.805 229.762 556.777 231.207 554.121 232.652C551.465 234.059 549.219 235.367 547.383 236.578C545.586 237.75 544.316 238.609 543.574 239.156C542.129 240.758 540.508 242.184 538.711 243.434C536.914 244.684 534.902 245.758 532.676 246.656C530.449 247.516 527.969 248.18 525.234 248.648C522.5 249.117 519.492 249.352 516.211 249.352L515.625 246.832C519.414 246.207 522.676 244.996 525.41 243.199C528.184 241.402 530.566 239.195 532.559 236.578C534.551 233.922 536.25 230.953 537.656 227.672C539.062 224.352 540.312 220.855 541.406 217.184C542.031 215.074 542.852 212.848 543.867 210.504C544.922 208.16 546.172 205.895 547.617 203.707C549.102 201.48 550.781 199.41 552.656 197.496C554.57 195.543 556.738 193.902 559.16 192.574C558.496 191.324 557.832 190.055 557.168 188.766C556.543 187.438 555.938 186.109 555.352 184.781C554.531 183.219 553.711 181.5 552.891 179.625C552.07 177.711 551.094 175.953 549.961 174.352C548.867 172.711 547.559 171.344 546.035 170.25C544.551 169.156 542.695 168.609 540.469 168.609C538.906 168.609 537.363 168.785 535.84 169.137C534.355 169.488 532.93 169.918 531.562 170.426L530.742 168.023C534.141 166.891 537.578 165.934 541.055 165.152C544.57 164.332 548.047 163.922 551.484 163.922C553.125 163.922 554.746 164.039 556.348 164.273C557.949 164.469 559.492 164.84 560.977 165.387C562.266 165.855 563.516 166.637 564.727 167.73C565.938 168.785 567.09 170.055 568.184 171.539C569.277 172.984 570.293 174.547 571.23 176.227C572.207 177.906 573.105 179.586 573.926 181.266C574.785 182.945 575.547 184.547 576.211 186.07C576.914 187.555 577.52 188.844 578.027 189.938C581.465 197.32 584.883 204.723 588.281 212.145C591.68 219.527 595.332 226.812 599.238 234C599.941 235.289 600.684 236.559 601.465 237.809C602.285 239.059 603.184 240.172 604.16 241.148C605.176 242.125 606.289 242.906 607.5 243.492C608.711 244.078 610.078 244.352 611.602 244.312C612.148 244.312 612.891 244.254 613.828 244.137C614.805 244.02 615.859 243.727 616.992 243.258L617.871 245.895ZM562.441 199.312C561.426 200.953 560.488 202.652 559.629 204.41C558.809 206.168 558.047 207.965 557.344 209.801C556.641 211.598 555.996 213.395 555.41 215.191C554.824 216.988 554.238 218.707 553.652 220.348C553.066 222.145 552.422 223.902 551.719 225.621C551.055 227.301 550.293 228.941 549.434 230.543C552.363 228.824 555.801 227.027 559.746 225.152C563.691 223.277 567.91 221.676 572.402 220.348L562.441 199.312ZM671.602 249H632.344V246.832C634.492 246.832 636.23 246.617 637.559 246.188C638.887 245.719 639.922 245.113 640.664 244.371C641.445 243.629 641.973 242.77 642.246 241.793C642.52 240.816 642.656 239.781 642.656 238.688V169.547H635.215C633.145 169.547 630.957 169.723 628.652 170.074C626.387 170.387 624.121 171.031 621.855 172.008C619.59 172.945 617.402 174.254 615.293 175.934C613.184 177.613 611.27 179.801 609.551 182.496L607.148 182.145C608.203 180.504 609.004 178.707 609.551 176.754C610.137 174.762 610.586 172.887 610.898 171.129C611.211 169.098 611.406 167.047 611.484 164.977H693.164C692.617 166.07 692.188 167.203 691.875 168.375C691.562 169.547 691.309 170.719 691.113 171.891C690.918 173.023 690.781 174.117 690.703 175.172C690.664 176.188 690.645 177.086 690.645 177.867C690.645 178.297 690.645 178.688 690.645 179.039C690.645 179.352 690.664 179.625 690.703 179.859C690.742 180.133 690.781 180.387 690.82 180.621L688.652 180.973C688.496 179.215 687.988 177.711 687.129 176.461C686.309 175.211 685.273 174.176 684.023 173.355C682.812 172.496 681.465 171.812 679.98 171.305C678.496 170.797 677.031 170.426 675.586 170.191C674.18 169.918 672.852 169.742 671.602 169.664C670.352 169.586 669.355 169.547 668.613 169.547H661.289V238.688C661.289 239.469 661.406 240.328 661.641 241.266C661.875 242.203 662.363 243.082 663.105 243.902C663.848 244.723 664.883 245.426 666.211 246.012C667.578 246.559 669.375 246.832 671.602 246.832V249ZM784.746 248.297C781.191 249.742 777.988 250.719 775.137 251.227C772.285 251.734 769.766 251.988 767.578 251.988C764.844 251.988 762.109 251.266 759.375 249.82C756.68 248.375 754.062 246.539 751.523 244.312C749.023 242.047 746.66 239.547 744.434 236.812C742.207 234.078 740.195 231.402 738.398 228.785C736.641 226.168 735.137 223.785 733.887 221.637C732.676 219.488 731.816 217.887 731.309 216.832C736.27 216.012 740.703 214.527 744.609 212.379C746.289 211.441 747.93 210.328 749.531 209.039C751.133 207.75 752.559 206.227 753.809 204.469C755.059 202.711 756.055 200.699 756.797 198.434C757.578 196.168 757.969 193.59 757.969 190.699C757.969 188.082 757.637 185.719 756.973 183.609C756.309 181.461 755.43 179.566 754.336 177.926C753.242 176.246 751.973 174.82 750.527 173.648C749.082 172.438 747.578 171.441 746.016 170.66C744.453 169.879 742.871 169.312 741.27 168.961C739.707 168.57 738.242 168.375 736.875 168.375C734.805 168.375 733.086 168.59 731.719 169.02C730.391 169.449 729.336 170.035 728.555 170.777C727.773 171.48 727.227 172.32 726.914 173.297C726.641 174.234 726.504 175.23 726.504 176.285V238.688C726.504 239.469 726.621 240.328 726.855 241.266C727.129 242.203 727.617 243.082 728.32 243.902C729.062 244.723 730.117 245.426 731.484 246.012C732.852 246.559 734.648 246.832 736.875 246.832V249H697.617V246.832C699.688 246.832 701.387 246.637 702.715 246.246C704.043 245.816 705.098 245.25 705.879 244.547C706.66 243.805 707.188 242.965 707.461 242.027C707.773 241.09 707.93 240.094 707.93 239.039V174.82C707.93 174.039 707.773 173.199 707.461 172.301C707.188 171.402 706.66 170.582 705.879 169.84C705.137 169.059 704.102 168.414 702.773 167.906C701.445 167.398 699.727 167.145 697.617 167.145V164.977H736.875C742.422 164.977 747.656 165.465 752.578 166.441C757.5 167.418 761.797 168.961 765.469 171.07C769.18 173.141 772.109 175.816 774.258 179.098C776.445 182.34 777.539 186.246 777.539 190.816C777.539 194.684 776.738 198.062 775.137 200.953C773.574 203.844 771.484 206.324 768.867 208.395C766.289 210.465 763.34 212.184 760.02 213.551C756.738 214.879 753.379 215.934 749.941 216.715C751.27 219.137 752.734 221.559 754.336 223.98C755.938 226.402 757.617 228.727 759.375 230.953C761.133 233.18 762.891 235.25 764.648 237.164C766.445 239.078 768.184 240.758 769.863 242.203C771.543 243.609 773.105 244.723 774.551 245.543C776.035 246.324 777.344 246.715 778.477 246.715C779.023 246.715 779.766 246.656 780.703 246.539C781.68 246.422 782.734 246.129 783.867 245.66L784.746 248.297ZM887.168 245.895C883.613 247.34 880.371 248.316 877.441 248.824C874.512 249.332 871.875 249.586 869.531 249.586C867.656 249.586 866.035 249.469 864.668 249.234C863.301 249.039 862.129 248.785 861.152 248.473C860.02 248.121 859.043 247.73 858.223 247.301C856.504 246.324 855 245.055 853.711 243.492C852.422 241.93 851.25 240.25 850.195 238.453C849.18 236.656 848.262 234.801 847.441 232.887C846.621 230.973 845.82 229.176 845.039 227.496L843.574 224.391C839.629 225.523 835.938 226.832 832.5 228.316C829.102 229.762 826.074 231.207 823.418 232.652C820.762 234.059 818.516 235.367 816.68 236.578C814.883 237.75 813.613 238.609 812.871 239.156C811.426 240.758 809.805 242.184 808.008 243.434C806.211 244.684 804.199 245.758 801.973 246.656C799.746 247.516 797.266 248.18 794.531 248.648C791.797 249.117 788.789 249.352 785.508 249.352L784.922 246.832C788.711 246.207 791.973 244.996 794.707 243.199C797.48 241.402 799.863 239.195 801.855 236.578C803.848 233.922 805.547 230.953 806.953 227.672C808.359 224.352 809.609 220.855 810.703 217.184C811.328 215.074 812.148 212.848 813.164 210.504C814.219 208.16 815.469 205.895 816.914 203.707C818.398 201.48 820.078 199.41 821.953 197.496C823.867 195.543 826.035 193.902 828.457 192.574C827.793 191.324 827.129 190.055 826.465 188.766C825.84 187.438 825.234 186.109 824.648 184.781C823.828 183.219 823.008 181.5 822.188 179.625C821.367 177.711 820.391 175.953 819.258 174.352C818.164 172.711 816.855 171.344 815.332 170.25C813.848 169.156 811.992 168.609 809.766 168.609C808.203 168.609 806.66 168.785 805.137 169.137C803.652 169.488 802.227 169.918 800.859 170.426L800.039 168.023C803.438 166.891 806.875 165.934 810.352 165.152C813.867 164.332 817.344 163.922 820.781 163.922C822.422 163.922 824.043 164.039 825.645 164.273C827.246 164.469 828.789 164.84 830.273 165.387C831.562 165.855 832.812 166.637 834.023 167.73C835.234 168.785 836.387 170.055 837.48 171.539C838.574 172.984 839.59 174.547 840.527 176.227C841.504 177.906 842.402 179.586 843.223 181.266C844.082 182.945 844.844 184.547 845.508 186.07C846.211 187.555 846.816 188.844 847.324 189.938C850.762 197.32 854.18 204.723 857.578 212.145C860.977 219.527 864.629 226.812 868.535 234C869.238 235.289 869.98 236.559 870.762 237.809C871.582 239.059 872.48 240.172 873.457 241.148C874.473 242.125 875.586 242.906 876.797 243.492C878.008 244.078 879.375 244.352 880.898 244.312C881.445 244.312 882.188 244.254 883.125 244.137C884.102 244.02 885.156 243.727 886.289 243.258L887.168 245.895ZM831.738 199.312C830.723 200.953 829.785 202.652 828.926 204.41C828.105 206.168 827.344 207.965 826.641 209.801C825.938 211.598 825.293 213.395 824.707 215.191C824.121 216.988 823.535 218.707 822.949 220.348C822.363 222.145 821.719 223.902 821.016 225.621C820.352 227.301 819.59 228.941 818.73 230.543C821.66 228.824 825.098 227.027 829.043 225.152C832.988 223.277 837.207 221.676 841.699 220.348L831.738 199.312Z" fill="#DBBE88"/>
<path d="M852.959 97.7499C852.959 101.224 852.256 104.202 850.85 106.684C849.485 109.165 847.624 111.296 845.266 113.074C842.95 114.853 840.241 116.362 837.139 117.603C834.037 118.844 830.769 119.981 827.336 121.015C823.903 122.008 820.388 123.001 816.789 123.993C813.232 124.945 809.799 126.041 806.491 127.281C803.223 128.481 800.183 129.908 797.371 131.562C794.558 133.175 792.2 135.161 790.298 137.518H853.828C852.256 139.049 850.933 140.827 849.857 142.854C848.782 144.88 847.913 146.824 847.252 148.686C846.507 150.878 845.907 153.091 845.452 155.324L842.536 155.944C842.743 155.2 842.867 154.435 842.909 153.649C842.991 152.904 843.033 152.284 843.033 151.788C843.033 149.678 842.495 148.003 841.42 146.762C840.386 145.522 838.876 144.57 836.891 143.908C834.905 143.247 832.506 142.812 829.694 142.606C826.881 142.44 823.717 142.357 820.202 142.357H775.966C779.234 138.676 782.543 135.533 785.893 132.927C789.285 130.28 792.614 128.005 795.882 126.103C799.149 124.2 802.313 122.566 805.374 121.201C808.435 119.795 811.309 118.513 813.998 117.355C816.727 116.155 819.209 114.956 821.442 113.757C823.717 112.557 825.661 111.171 827.274 109.6C828.887 108.028 830.128 106.188 830.997 104.078C831.907 101.969 832.362 99.4044 832.362 96.385C832.362 94.2343 832.031 92.0008 831.369 89.6846C830.749 87.327 829.715 85.1763 828.267 83.2323C826.819 81.247 824.937 79.6133 822.621 78.3311C820.305 77.0489 817.451 76.4078 814.06 76.4078C810.916 76.4078 808.145 76.9042 805.746 77.8968C803.389 78.8895 801.341 80.1716 799.604 81.7434C797.867 83.3151 796.419 85.0522 795.261 86.9548C794.144 88.8574 793.214 90.7186 792.469 92.5385C791.766 94.317 791.249 95.9507 790.918 97.4397C790.587 98.9287 790.381 100.045 790.298 100.79L777.207 93.4691C779.73 89.7053 782.295 86.5205 784.9 83.9148C787.547 81.2677 790.36 79.1376 793.338 77.5246C796.357 75.8701 799.604 74.6914 803.078 73.9882C806.553 73.2437 810.399 72.8715 814.618 72.8715C819.871 72.8715 824.813 73.3471 829.446 74.2984C834.119 75.2084 838.194 76.656 841.668 78.6413C845.142 80.6266 847.893 83.191 849.919 86.3344C851.946 89.4778 852.959 93.283 852.959 97.7499ZM948.689 111.833C948.689 115.556 948.11 118.947 946.951 122.008C945.835 125.027 944.284 127.736 942.298 130.135C940.354 132.534 938.059 134.623 935.412 136.401C932.765 138.139 929.911 139.586 926.85 140.744C923.831 141.902 920.687 142.75 917.42 143.288C914.152 143.867 910.926 144.157 907.742 144.157C904.515 144.157 901.248 143.846 897.939 143.226C894.672 142.606 891.487 141.613 888.385 140.248C885.324 138.842 882.449 137.043 879.761 134.85C877.073 132.617 874.715 129.887 872.688 126.661C870.703 123.435 869.131 119.671 867.973 115.37C866.815 111.068 866.236 106.167 866.236 100.666C866.236 92.9728 867.291 86.0655 869.4 79.9442C871.551 73.7814 874.57 68.5493 878.458 64.2478C882.346 59.9463 886.999 56.6374 892.417 54.3212C897.877 52.005 903.916 50.8469 910.533 50.8469C914.752 50.8469 918.454 51.1158 921.639 51.6535C924.865 52.1498 927.843 53.0597 930.573 54.3833C933.344 55.6654 936.012 57.4026 938.576 59.5947C941.182 61.7455 943.953 64.4753 946.889 67.7841L934.295 75.4152C933.468 72.3958 932.434 69.604 931.193 67.0396C929.994 64.4753 928.525 62.2625 926.788 60.4012C925.051 58.54 923.004 57.0924 920.646 56.0584C918.33 54.983 915.641 54.4453 912.581 54.4453C908.693 54.4453 905.156 55.3759 901.972 57.2372C898.828 59.057 896.078 61.6421 893.72 64.9923C891.404 68.3011 889.543 72.2718 888.137 76.9042C886.73 81.5365 885.862 86.6653 885.531 92.2903C887.309 90.1809 889.336 88.4645 891.611 87.1409C893.927 85.776 896.305 84.7213 898.746 83.9768C901.186 83.191 903.605 82.6533 906.004 82.3638C908.445 82.0329 910.678 81.8674 912.705 81.8674C917.709 81.8674 922.383 82.4258 926.726 83.5425C931.11 84.6179 934.915 86.3551 938.142 88.754C941.409 91.1115 943.973 94.1929 945.835 97.9981C947.737 101.803 948.689 106.415 948.689 111.833ZM929.332 113.136C929.332 108.338 928.711 104.264 927.471 100.914C926.23 97.5638 924.596 94.834 922.569 92.7246C920.543 90.6152 918.226 89.0849 915.621 88.1336C913.056 87.1823 910.43 86.7066 907.742 86.7066C905.136 86.7066 902.571 87.2857 900.048 88.4438C897.567 89.6019 895.333 91.2977 893.348 93.5311C891.363 95.7646 889.77 98.5358 888.571 101.845C887.371 105.112 886.772 108.876 886.772 113.136C886.772 117.768 887.392 121.822 888.633 125.296C889.874 128.729 891.487 131.583 893.472 133.858C895.457 136.133 897.691 137.849 900.173 139.007C902.696 140.124 905.219 140.682 907.742 140.682C910.265 140.682 912.808 140.124 915.373 139.007C917.978 137.849 920.294 136.133 922.321 133.858C924.389 131.583 926.064 128.729 927.346 125.296C928.67 121.822 929.332 117.768 929.332 113.136Z" fill="#D7C6A5"/>
</g>
<defs>
<filter id="filter0_i_985_60" x="3.98438" y="50.8467" width="944.704" height="206.021" filterUnits="userSpaceOnUse" color-interpolation-filters="sRGB">
<feFlood flood-opacity="0" result="BackgroundImageFix"/>
<feBlend mode="normal" in="SourceGraphic" in2="BackgroundImageFix" result="shape"/>
<feColorMatrix in="SourceAlpha" type="matrix" values="0 0 0 0 0 0 0 0 0 0 0 0 0 0 0 0 0 0 127 0" result="hardAlpha"/>
<feOffset dy="4"/>
<feGaussianBlur stdDeviation="2"/>
<feComposite in2="hardAlpha" operator="arithmetic" k2="-1" k3="1"/>
<feColorMatrix type="matrix" values="0 0 0 0 0 0 0 0 0 0 0 0 0 0 0 0 0 0 0.25 0"/>
<feBlend mode="normal" in2="shape" result="effect1_innerShadow_985_60"/>
</filter>
</defs>
</svg>
