<svg width="1039" height="257" viewBox="0 0 1039 257" fill="none" xmlns="http://www.w3.org/2000/svg">
<g filter="url(#filter0_i_857_45)">
<path d="M43.1836 253H3.98438V250.832C6.05469 250.832 7.75391 250.637 9.08203 250.246C10.4102 249.816 11.4648 249.25 12.2461 248.547C13.0273 247.805 13.5547 246.965 13.8281 246.027C14.1406 245.09 14.2969 244.094 14.2969 243.039V154.973C14.2969 154.191 14.1406 153.352 13.8281 152.453C13.5547 151.555 13.0273 150.734 12.2461 149.992C11.5039 149.211 10.4688 148.566 9.14062 148.059C7.8125 147.551 6.09375 147.297 3.98438 147.297V145.129H32.8711V242.688C32.8711 243.469 32.9883 244.328 33.2227 245.266C33.4961 246.203 33.9844 247.082 34.6875 247.902C35.4297 248.723 36.4648 249.426 37.793 250.012C39.1602 250.559 40.957 250.832 43.1836 250.832V253ZM99.6094 252.297C96.0547 253.742 92.7344 254.719 89.6484 255.227C86.6016 255.734 83.8477 255.988 81.3867 255.988C77.9102 255.988 74.5898 255.324 71.4258 253.996C68.2617 252.668 65.2539 250.91 62.4023 248.723C59.5898 246.535 56.9141 244.035 54.375 241.223C51.875 238.41 49.4922 235.539 47.2266 232.609C45 229.641 42.8906 226.711 40.8984 223.82C38.9453 220.93 37.1094 218.332 35.3906 216.027C39.8438 212.551 44.043 208.82 47.9883 204.836C49.668 203.156 51.3672 201.34 53.0859 199.387C54.8438 197.395 56.5039 195.324 58.0664 193.176C59.668 190.988 61.1328 188.742 62.4609 186.438C63.7891 184.094 64.8828 181.73 65.7422 179.348C65.8203 179.152 65.8789 178.957 65.918 178.762C65.957 178.566 65.9766 178.352 65.9766 178.117C65.9766 177.414 65.7812 176.652 65.3906 175.832C65.0391 175.012 64.4336 174.25 63.5742 173.547C62.7539 172.844 61.6602 172.277 60.293 171.848C58.9648 171.379 57.3438 171.145 55.4297 171.145V168.977H87.5977C86.3086 174.133 84.4922 178.879 82.1484 183.215C79.8438 187.512 77.1875 191.418 74.1797 194.934C71.2109 198.449 67.9883 201.555 64.5117 204.25C61.0742 206.945 57.5781 209.27 54.0234 211.223C58.5938 216.418 62.8125 221.398 66.6797 226.164C70.5859 230.93 74.1602 235.129 77.4023 238.762C80.6836 242.395 83.6328 245.305 86.25 247.492C88.9062 249.641 91.2695 250.715 93.3398 250.715C93.8867 250.715 94.6484 250.656 95.625 250.539C96.6016 250.422 97.6562 250.129 98.7891 249.66L99.6094 252.297ZM198.809 249.895C195.254 251.34 192.012 252.316 189.082 252.824C186.152 253.332 183.516 253.586 181.172 253.586C179.297 253.586 177.676 253.469 176.309 253.234C174.941 253.039 173.77 252.785 172.793 252.473C171.66 252.121 170.684 251.73 169.863 251.301C168.145 250.324 166.641 249.055 165.352 247.492C164.062 245.93 162.891 244.25 161.836 242.453C160.82 240.656 159.902 238.801 159.082 236.887C158.262 234.973 157.461 233.176 156.68 231.496L155.215 228.391C151.27 229.523 147.578 230.832 144.141 232.316C140.742 233.762 137.715 235.207 135.059 236.652C132.402 238.059 130.156 239.367 128.32 240.578C126.523 241.75 125.254 242.609 124.512 243.156C123.066 244.758 121.445 246.184 119.648 247.434C117.852 248.684 115.84 249.758 113.613 250.656C111.387 251.516 108.906 252.18 106.172 252.648C103.438 253.117 100.43 253.352 97.1484 253.352L96.5625 250.832C100.352 250.207 103.613 248.996 106.348 247.199C109.121 245.402 111.504 243.195 113.496 240.578C115.488 237.922 117.188 234.953 118.594 231.672C120 228.352 121.25 224.855 122.344 221.184C122.969 219.074 123.789 216.848 124.805 214.504C125.859 212.16 127.109 209.895 128.555 207.707C130.039 205.48 131.719 203.41 133.594 201.496C135.508 199.543 137.676 197.902 140.098 196.574C139.434 195.324 138.77 194.055 138.105 192.766C137.48 191.438 136.875 190.109 136.289 188.781C135.469 187.219 134.648 185.5 133.828 183.625C133.008 181.711 132.031 179.953 130.898 178.352C129.805 176.711 128.496 175.344 126.973 174.25C125.488 173.156 123.633 172.609 121.406 172.609C119.844 172.609 118.301 172.785 116.777 173.137C115.293 173.488 113.867 173.918 112.5 174.426L111.68 172.023C115.078 170.891 118.516 169.934 121.992 169.152C125.508 168.332 128.984 167.922 132.422 167.922C134.062 167.922 135.684 168.039 137.285 168.273C138.887 168.469 140.43 168.84 141.914 169.387C143.203 169.855 144.453 170.637 145.664 171.73C146.875 172.785 148.027 174.055 149.121 175.539C150.215 176.984 151.23 178.547 152.168 180.227C153.145 181.906 154.043 183.586 154.863 185.266C155.723 186.945 156.484 188.547 157.148 190.07C157.852 191.555 158.457 192.844 158.965 193.938C162.402 201.32 165.82 208.723 169.219 216.145C172.617 223.527 176.27 230.812 180.176 238C180.879 239.289 181.621 240.559 182.402 241.809C183.223 243.059 184.121 244.172 185.098 245.148C186.113 246.125 187.227 246.906 188.438 247.492C189.648 248.078 191.016 248.352 192.539 248.312C193.086 248.312 193.828 248.254 194.766 248.137C195.742 248.02 196.797 247.727 197.93 247.258L198.809 249.895ZM143.379 203.312C142.363 204.953 141.426 206.652 140.566 208.41C139.746 210.168 138.984 211.965 138.281 213.801C137.578 215.598 136.934 217.395 136.348 219.191C135.762 220.988 135.176 222.707 134.59 224.348C134.004 226.145 133.359 227.902 132.656 229.621C131.992 231.301 131.23 232.941 130.371 234.543C133.301 232.824 136.738 231.027 140.684 229.152C144.629 227.277 148.848 225.676 153.34 224.348L143.379 203.312ZM221.25 254.582C217.617 254.582 214.668 254.504 212.402 254.348C210.137 254.191 208.262 253.996 206.777 253.762C205.293 253.566 204.062 253.391 203.086 253.234C202.148 253.078 201.191 253 200.215 253C200.645 251.242 200.957 249.641 201.152 248.195C201.348 246.711 201.445 245.344 201.445 244.094C201.445 242.336 201.289 240.715 200.977 239.23C200.664 237.707 200.293 236.105 199.863 234.426L202.5 234.309C203.594 236.77 205.234 239.035 207.422 241.105C209.609 243.137 212.051 244.914 214.746 246.438C217.441 247.922 220.254 249.094 223.184 249.953C226.113 250.773 228.906 251.184 231.562 251.184C234.727 251.184 237.637 250.637 240.293 249.543C242.949 248.449 245.234 247.004 247.148 245.207C249.062 243.371 250.547 241.301 251.602 238.996C252.695 236.652 253.242 234.25 253.242 231.789C253.242 229.094 252.617 226.906 251.367 225.227C250.156 223.508 248.516 222.141 246.445 221.125C244.414 220.109 242.07 219.348 239.414 218.84C236.797 218.332 234.102 217.922 231.328 217.609C229.258 217.375 226.992 217.102 224.531 216.789C222.109 216.477 219.668 216.008 217.207 215.383C214.746 214.758 212.383 213.938 210.117 212.922C207.852 211.867 205.84 210.539 204.082 208.938C202.324 207.336 200.918 205.383 199.863 203.078C198.809 200.773 198.281 198.02 198.281 194.816C198.281 191.027 199.023 187.727 200.508 184.914C201.992 182.102 203.945 179.699 206.367 177.707C208.828 175.676 211.641 174.016 214.805 172.727C217.969 171.398 221.211 170.363 224.531 169.621C227.891 168.84 231.211 168.312 234.492 168.039C237.812 167.727 240.84 167.57 243.574 167.57C245.957 167.57 248.184 167.648 250.254 167.805C252.363 167.961 254.297 168.137 256.055 168.332C257.852 168.488 259.492 168.645 260.977 168.801C262.5 168.918 263.887 168.977 265.137 168.977C264.707 170.812 264.395 172.453 264.199 173.898C264.043 175.305 263.965 176.672 263.965 178C263.965 179.68 264.102 181.281 264.375 182.805C264.648 184.289 265.02 185.891 265.488 187.609L262.852 187.727C262.227 186.281 261.641 184.855 261.094 183.449C260.547 182.043 259.883 180.734 259.102 179.523C258.359 178.273 257.422 177.141 256.289 176.125C255.195 175.07 253.77 174.172 252.012 173.43C250.293 172.648 248.164 172.062 245.625 171.672C243.125 171.242 240.078 171.027 236.484 171.027C234.062 171.027 231.699 171.457 229.395 172.316C227.129 173.176 225.098 174.367 223.301 175.891C221.543 177.375 220.117 179.172 219.023 181.281C217.93 183.352 217.383 185.617 217.383 188.078C217.383 190.227 217.773 192.062 218.555 193.586C219.375 195.109 220.43 196.398 221.719 197.453C223.008 198.508 224.453 199.367 226.055 200.031C227.695 200.695 229.316 201.223 230.918 201.613C232.559 201.965 234.102 202.219 235.547 202.375C237.031 202.531 238.262 202.648 239.238 202.727C241.074 202.883 243.164 203.117 245.508 203.43C247.852 203.742 250.234 204.23 252.656 204.895C255.078 205.52 257.441 206.359 259.746 207.414C262.09 208.469 264.16 209.836 265.957 211.516C267.793 213.195 269.258 215.227 270.352 217.609C271.445 219.953 271.992 222.746 271.992 225.988C271.992 230.246 271.25 233.918 269.766 237.004C268.32 240.051 266.348 242.648 263.848 244.797C261.348 246.906 258.418 248.605 255.059 249.895C251.738 251.145 248.184 252.121 244.395 252.824C240.645 253.527 236.777 253.996 232.793 254.23C228.848 254.465 225 254.582 221.25 254.582ZM319.512 253H280.312V250.832C282.422 250.832 284.141 250.617 285.469 250.188C286.836 249.719 287.891 249.113 288.633 248.371C289.414 247.629 289.941 246.77 290.215 245.793C290.488 244.816 290.625 243.781 290.625 242.688V154.973C290.625 154.191 290.469 153.352 290.156 152.453C289.883 151.555 289.355 150.734 288.574 149.992C287.832 149.211 286.797 148.566 285.469 148.059C284.141 147.551 282.422 147.297 280.312 147.297V145.129H309.199V175.129C310.527 173.996 312.031 172.922 313.711 171.906C315.43 170.852 317.305 169.934 319.336 169.152C321.406 168.371 323.652 167.746 326.074 167.277C328.535 166.809 331.191 166.574 334.043 166.574C337.559 166.574 341.074 166.945 344.59 167.688C348.105 168.43 351.465 169.543 354.668 171.027C357.91 172.512 360.918 174.367 363.691 176.594C366.465 178.781 368.867 181.34 370.898 184.27C372.93 187.199 374.531 190.48 375.703 194.113C376.875 197.746 377.461 201.73 377.461 206.066C377.461 210.793 376.797 215.148 375.469 219.133C374.141 223.078 372.383 226.691 370.195 229.973C368.047 233.215 365.586 236.145 362.812 238.762C360.039 241.34 357.207 243.625 354.316 245.617C347.52 250.305 339.805 254.055 331.172 256.867L329.473 255.402C334.59 252.473 339.16 248.645 343.184 243.918C344.902 241.926 346.582 239.621 348.223 237.004C349.863 234.387 351.328 231.457 352.617 228.215C353.906 224.973 354.941 221.418 355.723 217.551C356.543 213.645 356.953 209.387 356.953 204.777C356.953 199.113 356.328 194.152 355.078 189.895C353.867 185.637 352.168 182.102 349.98 179.289C347.793 176.438 345.195 174.309 342.188 172.902C339.219 171.496 335.977 170.793 332.461 170.793C329.297 170.793 326.309 171.359 323.496 172.492C320.723 173.586 318.301 175.168 316.23 177.238C314.16 179.27 312.5 181.75 311.25 184.68C310 187.57 309.316 190.832 309.199 194.465V242.688C309.199 243.469 309.316 244.328 309.551 245.266C309.824 246.203 310.312 247.082 311.016 247.902C311.758 248.723 312.793 249.426 314.121 250.012C315.488 250.559 317.285 250.832 319.512 250.832V253ZM426.328 253H387.07V250.832C389.18 250.832 390.898 250.617 392.227 250.188C393.594 249.719 394.648 249.113 395.391 248.371C396.172 247.629 396.699 246.77 396.973 245.793C397.246 244.816 397.383 243.781 397.383 242.688V178.82C397.383 178.039 397.227 177.199 396.914 176.301C396.641 175.402 396.113 174.582 395.332 173.84C394.59 173.059 393.555 172.414 392.227 171.906C390.898 171.398 389.18 171.145 387.07 171.145V168.977H426.328V171.145C424.18 171.145 422.422 171.379 421.055 171.848C419.727 172.277 418.672 172.883 417.891 173.664C417.148 174.406 416.641 175.266 416.367 176.242C416.094 177.219 415.957 178.254 415.957 179.348V242.688C415.957 243.469 416.074 244.328 416.309 245.266C416.582 246.203 417.07 247.082 417.773 247.902C418.516 248.723 419.57 249.426 420.938 250.012C422.305 250.559 424.102 250.832 426.328 250.832V253ZM494.355 253H455.156V250.832C457.227 250.832 458.926 250.637 460.254 250.246C461.582 249.816 462.637 249.25 463.418 248.547C464.199 247.805 464.727 246.965 465 246.027C465.312 245.09 465.469 244.094 465.469 243.039V218.664L441.68 179.348H441.562C441.094 178.566 440.449 177.707 439.629 176.77C438.848 175.793 437.852 174.895 436.641 174.074C435.43 173.254 433.984 172.57 432.305 172.023C430.625 171.438 428.672 171.145 426.445 171.145V168.977H466.875V171.145C464.297 171.145 462.539 171.457 461.602 172.082C460.664 172.707 460.195 173.527 460.195 174.543C460.195 175.246 460.352 176.008 460.664 176.828C460.977 177.648 461.367 178.488 461.836 179.348L482.637 212.336C486.23 207.844 489.609 202.902 492.773 197.512C495.938 192.121 498.984 186.066 501.914 179.348C502.578 177.941 502.91 176.73 502.91 175.715C502.91 174.387 502.285 173.293 501.035 172.434C499.824 171.574 497.715 171.145 494.707 171.145V168.977H520.664C518.086 173.156 515.332 177.453 512.402 181.867C509.512 186.281 506.504 190.637 503.379 194.934C500.293 199.191 497.109 203.312 493.828 207.297C490.586 211.281 487.324 214.914 484.043 218.195V243.156C484.043 243.938 484.18 244.777 484.453 245.676C484.727 246.574 485.234 247.414 485.977 248.195C486.758 248.938 487.812 249.562 489.141 250.07C490.508 250.578 492.246 250.832 494.355 250.832V253ZM617.871 249.895C614.316 251.34 611.074 252.316 608.145 252.824C605.215 253.332 602.578 253.586 600.234 253.586C598.359 253.586 596.738 253.469 595.371 253.234C594.004 253.039 592.832 252.785 591.855 252.473C590.723 252.121 589.746 251.73 588.926 251.301C587.207 250.324 585.703 249.055 584.414 247.492C583.125 245.93 581.953 244.25 580.898 242.453C579.883 240.656 578.965 238.801 578.145 236.887C577.324 234.973 576.523 233.176 575.742 231.496L574.277 228.391C570.332 229.523 566.641 230.832 563.203 232.316C559.805 233.762 556.777 235.207 554.121 236.652C551.465 238.059 549.219 239.367 547.383 240.578C545.586 241.75 544.316 242.609 543.574 243.156C542.129 244.758 540.508 246.184 538.711 247.434C536.914 248.684 534.902 249.758 532.676 250.656C530.449 251.516 527.969 252.18 525.234 252.648C522.5 253.117 519.492 253.352 516.211 253.352L515.625 250.832C519.414 250.207 522.676 248.996 525.41 247.199C528.184 245.402 530.566 243.195 532.559 240.578C534.551 237.922 536.25 234.953 537.656 231.672C539.062 228.352 540.312 224.855 541.406 221.184C542.031 219.074 542.852 216.848 543.867 214.504C544.922 212.16 546.172 209.895 547.617 207.707C549.102 205.48 550.781 203.41 552.656 201.496C554.57 199.543 556.738 197.902 559.16 196.574C558.496 195.324 557.832 194.055 557.168 192.766C556.543 191.438 555.938 190.109 555.352 188.781C554.531 187.219 553.711 185.5 552.891 183.625C552.07 181.711 551.094 179.953 549.961 178.352C548.867 176.711 547.559 175.344 546.035 174.25C544.551 173.156 542.695 172.609 540.469 172.609C538.906 172.609 537.363 172.785 535.84 173.137C534.355 173.488 532.93 173.918 531.562 174.426L530.742 172.023C534.141 170.891 537.578 169.934 541.055 169.152C544.57 168.332 548.047 167.922 551.484 167.922C553.125 167.922 554.746 168.039 556.348 168.273C557.949 168.469 559.492 168.84 560.977 169.387C562.266 169.855 563.516 170.637 564.727 171.73C565.938 172.785 567.09 174.055 568.184 175.539C569.277 176.984 570.293 178.547 571.23 180.227C572.207 181.906 573.105 183.586 573.926 185.266C574.785 186.945 575.547 188.547 576.211 190.07C576.914 191.555 577.52 192.844 578.027 193.938C581.465 201.32 584.883 208.723 588.281 216.145C591.68 223.527 595.332 230.812 599.238 238C599.941 239.289 600.684 240.559 601.465 241.809C602.285 243.059 603.184 244.172 604.16 245.148C605.176 246.125 606.289 246.906 607.5 247.492C608.711 248.078 610.078 248.352 611.602 248.312C612.148 248.312 612.891 248.254 613.828 248.137C614.805 248.02 615.859 247.727 616.992 247.258L617.871 249.895ZM562.441 203.312C561.426 204.953 560.488 206.652 559.629 208.41C558.809 210.168 558.047 211.965 557.344 213.801C556.641 215.598 555.996 217.395 555.41 219.191C554.824 220.988 554.238 222.707 553.652 224.348C553.066 226.145 552.422 227.902 551.719 229.621C551.055 231.301 550.293 232.941 549.434 234.543C552.363 232.824 555.801 231.027 559.746 229.152C563.691 227.277 567.91 225.676 572.402 224.348L562.441 203.312ZM671.602 253H632.344V250.832C634.492 250.832 636.23 250.617 637.559 250.188C638.887 249.719 639.922 249.113 640.664 248.371C641.445 247.629 641.973 246.77 642.246 245.793C642.52 244.816 642.656 243.781 642.656 242.688V173.547H635.215C633.145 173.547 630.957 173.723 628.652 174.074C626.387 174.387 624.121 175.031 621.855 176.008C619.59 176.945 617.402 178.254 615.293 179.934C613.184 181.613 611.27 183.801 609.551 186.496L607.148 186.145C608.203 184.504 609.004 182.707 609.551 180.754C610.137 178.762 610.586 176.887 610.898 175.129C611.211 173.098 611.406 171.047 611.484 168.977H693.164C692.617 170.07 692.188 171.203 691.875 172.375C691.562 173.547 691.309 174.719 691.113 175.891C690.918 177.023 690.781 178.117 690.703 179.172C690.664 180.188 690.645 181.086 690.645 181.867C690.645 182.297 690.645 182.688 690.645 183.039C690.645 183.352 690.664 183.625 690.703 183.859C690.742 184.133 690.781 184.387 690.82 184.621L688.652 184.973C688.496 183.215 687.988 181.711 687.129 180.461C686.309 179.211 685.273 178.176 684.023 177.355C682.812 176.496 681.465 175.812 679.98 175.305C678.496 174.797 677.031 174.426 675.586 174.191C674.18 173.918 672.852 173.742 671.602 173.664C670.352 173.586 669.355 173.547 668.613 173.547H661.289V242.688C661.289 243.469 661.406 244.328 661.641 245.266C661.875 246.203 662.363 247.082 663.105 247.902C663.848 248.723 664.883 249.426 666.211 250.012C667.578 250.559 669.375 250.832 671.602 250.832V253ZM784.746 252.297C781.191 253.742 777.988 254.719 775.137 255.227C772.285 255.734 769.766 255.988 767.578 255.988C764.844 255.988 762.109 255.266 759.375 253.82C756.68 252.375 754.062 250.539 751.523 248.312C749.023 246.047 746.66 243.547 744.434 240.812C742.207 238.078 740.195 235.402 738.398 232.785C736.641 230.168 735.137 227.785 733.887 225.637C732.676 223.488 731.816 221.887 731.309 220.832C736.27 220.012 740.703 218.527 744.609 216.379C746.289 215.441 747.93 214.328 749.531 213.039C751.133 211.75 752.559 210.227 753.809 208.469C755.059 206.711 756.055 204.699 756.797 202.434C757.578 200.168 757.969 197.59 757.969 194.699C757.969 192.082 757.637 189.719 756.973 187.609C756.309 185.461 755.43 183.566 754.336 181.926C753.242 180.246 751.973 178.82 750.527 177.648C749.082 176.438 747.578 175.441 746.016 174.66C744.453 173.879 742.871 173.312 741.27 172.961C739.707 172.57 738.242 172.375 736.875 172.375C734.805 172.375 733.086 172.59 731.719 173.02C730.391 173.449 729.336 174.035 728.555 174.777C727.773 175.48 727.227 176.32 726.914 177.297C726.641 178.234 726.504 179.23 726.504 180.285V242.688C726.504 243.469 726.621 244.328 726.855 245.266C727.129 246.203 727.617 247.082 728.32 247.902C729.062 248.723 730.117 249.426 731.484 250.012C732.852 250.559 734.648 250.832 736.875 250.832V253H697.617V250.832C699.688 250.832 701.387 250.637 702.715 250.246C704.043 249.816 705.098 249.25 705.879 248.547C706.66 247.805 707.188 246.965 707.461 246.027C707.773 245.09 707.93 244.094 707.93 243.039V178.82C707.93 178.039 707.773 177.199 707.461 176.301C707.188 175.402 706.66 174.582 705.879 173.84C705.137 173.059 704.102 172.414 702.773 171.906C701.445 171.398 699.727 171.145 697.617 171.145V168.977H736.875C742.422 168.977 747.656 169.465 752.578 170.441C757.5 171.418 761.797 172.961 765.469 175.07C769.18 177.141 772.109 179.816 774.258 183.098C776.445 186.34 777.539 190.246 777.539 194.816C777.539 198.684 776.738 202.062 775.137 204.953C773.574 207.844 771.484 210.324 768.867 212.395C766.289 214.465 763.34 216.184 760.02 217.551C756.738 218.879 753.379 219.934 749.941 220.715C751.27 223.137 752.734 225.559 754.336 227.98C755.938 230.402 757.617 232.727 759.375 234.953C761.133 237.18 762.891 239.25 764.648 241.164C766.445 243.078 768.184 244.758 769.863 246.203C771.543 247.609 773.105 248.723 774.551 249.543C776.035 250.324 777.344 250.715 778.477 250.715C779.023 250.715 779.766 250.656 780.703 250.539C781.68 250.422 782.734 250.129 783.867 249.66L784.746 252.297ZM887.168 249.895C883.613 251.34 880.371 252.316 877.441 252.824C874.512 253.332 871.875 253.586 869.531 253.586C867.656 253.586 866.035 253.469 864.668 253.234C863.301 253.039 862.129 252.785 861.152 252.473C860.02 252.121 859.043 251.73 858.223 251.301C856.504 250.324 855 249.055 853.711 247.492C852.422 245.93 851.25 244.25 850.195 242.453C849.18 240.656 848.262 238.801 847.441 236.887C846.621 234.973 845.82 233.176 845.039 231.496L843.574 228.391C839.629 229.523 835.938 230.832 832.5 232.316C829.102 233.762 826.074 235.207 823.418 236.652C820.762 238.059 818.516 239.367 816.68 240.578C814.883 241.75 813.613 242.609 812.871 243.156C811.426 244.758 809.805 246.184 808.008 247.434C806.211 248.684 804.199 249.758 801.973 250.656C799.746 251.516 797.266 252.18 794.531 252.648C791.797 253.117 788.789 253.352 785.508 253.352L784.922 250.832C788.711 250.207 791.973 248.996 794.707 247.199C797.48 245.402 799.863 243.195 801.855 240.578C803.848 237.922 805.547 234.953 806.953 231.672C808.359 228.352 809.609 224.855 810.703 221.184C811.328 219.074 812.148 216.848 813.164 214.504C814.219 212.16 815.469 209.895 816.914 207.707C818.398 205.48 820.078 203.41 821.953 201.496C823.867 199.543 826.035 197.902 828.457 196.574C827.793 195.324 827.129 194.055 826.465 192.766C825.84 191.438 825.234 190.109 824.648 188.781C823.828 187.219 823.008 185.5 822.188 183.625C821.367 181.711 820.391 179.953 819.258 178.352C818.164 176.711 816.855 175.344 815.332 174.25C813.848 173.156 811.992 172.609 809.766 172.609C808.203 172.609 806.66 172.785 805.137 173.137C803.652 173.488 802.227 173.918 800.859 174.426L800.039 172.023C803.438 170.891 806.875 169.934 810.352 169.152C813.867 168.332 817.344 167.922 820.781 167.922C822.422 167.922 824.043 168.039 825.645 168.273C827.246 168.469 828.789 168.84 830.273 169.387C831.562 169.855 832.812 170.637 834.023 171.73C835.234 172.785 836.387 174.055 837.48 175.539C838.574 176.984 839.59 178.547 840.527 180.227C841.504 181.906 842.402 183.586 843.223 185.266C844.082 186.945 844.844 188.547 845.508 190.07C846.211 191.555 846.816 192.844 847.324 193.938C850.762 201.32 854.18 208.723 857.578 216.145C860.977 223.527 864.629 230.812 868.535 238C869.238 239.289 869.98 240.559 870.762 241.809C871.582 243.059 872.48 244.172 873.457 245.148C874.473 246.125 875.586 246.906 876.797 247.492C878.008 248.078 879.375 248.352 880.898 248.312C881.445 248.312 882.188 248.254 883.125 248.137C884.102 248.02 885.156 247.727 886.289 247.258L887.168 249.895ZM831.738 203.312C830.723 204.953 829.785 206.652 828.926 208.41C828.105 210.168 827.344 211.965 826.641 213.801C825.938 215.598 825.293 217.395 824.707 219.191C824.121 220.988 823.535 222.707 822.949 224.348C822.363 226.145 821.719 227.902 821.016 229.621C820.352 231.301 819.59 232.941 818.73 234.543C821.66 232.824 825.098 231.027 829.043 229.152C832.988 227.277 837.207 225.676 841.699 224.348L831.738 203.312Z" fill="#D2C1A1"/>
<path d="M869.549 80.7637C869.549 86.7793 868.331 91.9355 865.896 96.2324C863.533 100.529 860.311 104.217 856.229 107.297C852.218 110.376 847.527 112.99 842.156 115.139C836.785 117.287 831.128 119.257 825.184 121.047C819.24 122.766 813.152 124.484 806.922 126.203C800.763 127.85 794.819 129.748 789.09 131.896C783.432 133.973 778.169 136.444 773.299 139.309C768.429 142.102 764.347 145.539 761.053 149.621H871.053C868.331 152.271 866.04 155.35 864.178 158.859C862.316 162.368 860.812 165.734 859.666 168.957C858.377 172.753 857.339 176.584 856.551 180.451L851.502 181.525C851.86 180.236 852.075 178.911 852.146 177.551C852.29 176.262 852.361 175.188 852.361 174.328C852.361 170.676 851.43 167.775 849.568 165.627C847.778 163.479 845.164 161.831 841.727 160.686C838.289 159.54 834.135 158.788 829.266 158.43C824.396 158.143 818.917 158 812.83 158H736.238C741.896 151.626 747.625 146.184 753.426 141.672C759.298 137.089 765.063 133.15 770.721 129.855C776.378 126.561 781.857 123.732 787.156 121.369C792.456 118.934 797.433 116.714 802.088 114.709C806.814 112.632 811.111 110.555 814.979 108.479C818.917 106.402 822.283 104.003 825.076 101.281C827.869 98.5599 830.018 95.373 831.521 91.7207C833.097 88.0684 833.885 83.6283 833.885 78.4004C833.885 74.6764 833.312 70.8092 832.166 66.7988C831.092 62.7168 829.301 58.9928 826.795 55.627C824.288 52.1895 821.03 49.3607 817.02 47.1406C813.009 44.9206 808.068 43.8105 802.195 43.8105C796.753 43.8105 791.954 44.6699 787.801 46.3887C783.719 48.1074 780.174 50.3275 777.166 53.0488C774.158 55.7702 771.652 58.778 769.646 62.0723C767.713 65.3665 766.102 68.5892 764.812 71.7402C763.595 74.8197 762.7 77.6484 762.127 80.2266C761.554 82.8047 761.196 84.7383 761.053 86.0273L738.387 73.3516C742.755 66.8346 747.195 61.3203 751.707 56.8086C756.29 52.2253 761.16 48.5371 766.316 45.7441C771.544 42.8796 777.166 40.8385 783.182 39.6211C789.197 38.332 795.857 37.6875 803.162 37.6875C812.257 37.6875 820.815 38.5111 828.836 40.1582C836.928 41.7337 843.982 44.2402 849.998 47.6777C856.014 51.1152 860.776 55.5553 864.285 60.998C867.794 66.4408 869.549 73.0293 869.549 80.7637ZM1030.9 147.473C1030.9 154.419 1029.79 160.542 1027.57 165.842C1025.42 171.213 1022.48 175.832 1018.76 179.699C1015.03 183.638 1010.7 186.896 1005.76 189.475C1000.89 192.124 995.662 194.237 990.076 195.812C984.562 197.388 978.904 198.498 973.104 199.143C967.303 199.859 961.681 200.217 956.238 200.217C949.077 200.217 941.844 199.465 934.539 197.961C927.234 196.529 920.324 194.344 913.807 191.408C907.29 188.472 901.417 184.748 896.189 180.236C890.962 175.796 886.88 170.568 883.943 164.553L908.758 152.736C910.047 157.678 912.052 162.548 914.773 167.346C917.495 172.215 920.861 176.548 924.871 180.344C928.953 184.211 933.608 187.326 938.836 189.689C944.064 192.053 949.865 193.234 956.238 193.234C960.678 193.234 965.369 192.411 970.311 190.764C975.252 189.188 979.764 186.646 983.846 183.137C987.999 179.628 991.401 175.116 994.051 169.602C996.772 164.087 998.133 157.427 998.133 149.621C998.133 142.889 997.273 136.874 995.555 131.574C993.836 126.275 991.222 121.763 987.713 118.039C984.275 114.315 979.943 111.486 974.715 109.553C969.487 107.548 963.328 106.545 956.238 106.545C952.658 106.545 949.113 106.831 945.604 107.404C942.166 107.906 938.764 108.622 935.398 109.553C932.104 110.484 928.917 111.522 925.838 112.668C922.758 113.814 919.894 114.995 917.244 116.213C911.014 119.077 905.105 122.3 899.52 125.881L915.848 42.5215H1019.19C1017.76 45.3861 1016.65 48.4297 1015.86 51.6523C1015.14 54.875 1014.6 57.8828 1014.25 60.6758C1013.89 63.4688 1013.67 65.832 1013.6 67.7656C1013.53 69.6992 1013.49 70.8092 1013.49 71.0957L1009.73 71.7402C1008.73 66.9421 1006.91 63.0391 1004.26 60.0312C1001.61 57.0234 998.491 54.696 994.91 53.0488C991.329 51.3301 987.498 50.1842 983.416 49.6113C979.334 48.9668 975.359 48.6445 971.492 48.6445H943.133L933.68 103C937.547 101.568 941.235 100.565 944.744 99.9922C948.253 99.3477 952.085 99.0254 956.238 99.0254C965.835 99.0254 974.321 99.7415 981.697 101.174C989.145 102.535 995.626 104.432 1001.14 106.867C1006.65 109.23 1011.31 112.023 1015.11 115.246C1018.9 118.397 1021.94 121.763 1024.24 125.344C1026.6 128.924 1028.28 132.613 1029.29 136.408C1030.36 140.204 1030.9 143.892 1030.9 147.473Z" fill="#D7C6A5"/>
</g>
<defs>
<filter id="filter0_i_857_45" x="3.98438" y="37.6875" width="1026.91" height="223.18" filterUnits="userSpaceOnUse" color-interpolation-filters="sRGB">
<feFlood flood-opacity="0" result="BackgroundImageFix"/>
<feBlend mode="normal" in="SourceGraphic" in2="BackgroundImageFix" result="shape"/>
<feColorMatrix in="SourceAlpha" type="matrix" values="0 0 0 0 0 0 0 0 0 0 0 0 0 0 0 0 0 0 127 0" result="hardAlpha"/>
<feOffset dy="4"/>
<feGaussianBlur stdDeviation="2"/>
<feComposite in2="hardAlpha" operator="arithmetic" k2="-1" k3="1"/>
<feColorMatrix type="matrix" values="0 0 0 0 0 0 0 0 0 0 0 0 0 0 0 0 0 0 0.25 0"/>
<feBlend mode="normal" in2="shape" result="effect1_innerShadow_857_45"/>
</filter>
</defs>
</svg>
