<?xml version="1.0" encoding="UTF-8"?>
<svg version="1.1" xmlns="http://www.w3.org/2000/svg" width="512" height="512">
<path d="M0 0 C1.45108658 0.00273422 1.45108658 0.00273422 2.93148804 0.00552368 C17.26440977 0.05095174 31.21023917 0.55983928 45.3125 3.3125 C46.65803955 3.55395752 46.65803955 3.55395752 48.03076172 3.80029297 C107.84088904 14.62287989 165.35495829 48.68064457 202.3125 97.3125 C202.72918945 97.85277832 203.14587891 98.39305664 203.57519531 98.94970703 C211.2584873 108.9447116 218.00092968 119.40459036 224.3125 130.3125 C224.70679199 130.98974121 225.10108398 131.66698242 225.50732422 132.36474609 C238.68961173 155.2833756 247.29510918 180.85822563 252.625 206.6875 C252.77243652 207.39817627 252.91987305 208.10885254 253.07177734 208.84106445 C256.05713787 224.48358366 256.6873098 240.11919606 256.625 256 C256.62226578 257.45108658 256.62226578 257.45108658 256.61947632 258.93148804 C256.57404826 273.26440977 256.06516072 287.21023917 253.3125 301.3125 C253.15152832 302.20952637 252.99055664 303.10655273 252.82470703 304.03076172 C242.00212011 363.84088904 207.94435543 421.35495829 159.3125 458.3125 C158.77222168 458.72918945 158.23194336 459.14587891 157.67529297 459.57519531 C147.6802884 467.2584873 137.22040964 474.00092968 126.3125 480.3125 C125.63525879 480.70679199 124.95801758 481.10108398 124.26025391 481.50732422 C101.3416244 494.68961173 75.76677437 503.29510918 49.9375 508.625 C49.22682373 508.77243652 48.51614746 508.91987305 47.78393555 509.07177734 C32.14141634 512.05713787 16.50580394 512.6873098 0.625 512.625 C-0.34239105 512.62317719 -1.3097821 512.62135437 -2.30648804 512.61947632 C-16.63940977 512.57404826 -30.58523917 512.06516072 -44.6875 509.3125 C-45.58452637 509.15152832 -46.48155273 508.99055664 -47.40576172 508.82470703 C-107.21588904 498.00212011 -164.72995829 463.94435543 -201.6875 415.3125 C-202.10418945 414.77222168 -202.52087891 414.23194336 -202.95019531 413.67529297 C-210.6334873 403.6802884 -217.37592968 393.22040964 -223.6875 382.3125 C-224.08179199 381.63525879 -224.47608398 380.95801758 -224.88232422 380.26025391 C-238.06461173 357.3416244 -246.67010918 331.76677437 -252 305.9375 C-252.14743652 305.22682373 -252.29487305 304.51614746 -252.44677734 303.78393555 C-255.43213787 288.14141634 -256.0623098 272.50580394 -256 256.625 C-255.99817719 255.65760895 -255.99635437 254.6902179 -255.99447632 253.69351196 C-255.94904826 239.36059023 -255.44016072 225.41476083 -252.6875 211.3125 C-252.44604248 209.96696045 -252.44604248 209.96696045 -252.19970703 208.59423828 C-241.37712011 148.78411096 -207.31935543 91.27004171 -158.6875 54.3125 C-158.14722168 53.89581055 -157.60694336 53.47912109 -157.05029297 53.04980469 C-147.0552884 45.3665127 -136.59540964 38.62407032 -125.6875 32.3125 C-125.01025879 31.91820801 -124.33301758 31.52391602 -123.63525391 31.11767578 C-100.7166244 17.93538827 -75.14177437 9.32989082 -49.3125 4 C-48.60182373 3.85256348 -47.89114746 3.70512695 -47.15893555 3.55322266 C-31.51641634 0.56786213 -15.88080394 -0.0623098 0 0 Z M-155.9765625 84.7890625 C-158.23005176 86.88669083 -160.52090164 88.8930911 -162.875 90.875 C-203.10781924 125.98577654 -226.98038068 183.56287845 -231.46044922 235.80664062 C-235.39203306 296.51367707 -218.81549792 358.43358369 -178.28222656 404.92431641 C-175.95860997 407.51518856 -173.59285198 410.06432417 -171.2109375 412.6015625 C-169.11330917 414.85505176 -167.1069089 417.14590164 -165.125 419.5 C-130.01422346 459.73281924 -72.43712155 483.60538068 -20.19335938 488.08544922 C40.51367707 492.01703306 102.43358369 475.44049792 148.92431641 434.90722656 C151.51518856 432.58360997 154.06432417 430.21785198 156.6015625 427.8359375 C158.85505176 425.73830917 161.14590164 423.7319089 163.5 421.75 C203.73281924 386.63922346 227.60538068 329.06212155 232.08544922 276.81835938 C236.01703306 216.11132293 219.44049792 154.19141631 178.90722656 107.70068359 C176.58360997 105.10981144 174.21785198 102.56067583 171.8359375 100.0234375 C169.73830917 97.76994824 167.7319089 95.47909836 165.75 93.125 C130.63922346 52.89218076 73.06212155 29.01961932 20.81835938 24.53955078 C-44.07570975 20.33680118 -108.09876386 39.84223168 -155.9765625 84.7890625 Z " fill="#000000" transform="translate(255.6875,-0.3125)"/>
<path d="M0 0 C15.84 0 31.68 0 48 0 C48.495 7.425 48.495 7.425 49 15 C49.763125 13.96875 50.52625 12.9375 51.3125 11.875 C57.61287422 4.53201066 66.99294987 0.65703888 76.50732422 -0.23510742 C90.36141717 -0.94215615 101.59929618 -0.38937439 112.8125 8.5625 C123.70916507 19.04386567 128.73795346 34.37095647 129.1741333 49.22665405 C129.25614111 54.30095658 129.22533134 59.37457703 129.1953125 64.44921875 C129.19157561 66.31679634 129.18873184 68.18437591 129.18673706 70.05195618 C129.17915377 74.93286693 129.1595517 79.81365592 129.1373291 84.69451904 C129.11312907 90.56925694 129.1040644 96.44403588 129.09242249 102.31880951 C129.07312355 111.21262399 129.03476415 120.10617204 129 129 C113.49 129 97.98 129 82 129 C81.95101562 123.85792969 81.90203125 118.71585937 81.8515625 113.41796875 C81.81613612 110.14125753 81.78015333 106.86457101 81.7421875 103.58789062 C81.68210893 98.3982312 81.62398178 93.20860595 81.578125 88.01879883 C81.54098383 83.83005811 81.49454987 79.64151009 81.44193649 75.45293617 C81.42354442 73.86276984 81.40838181 72.27256245 81.39665604 70.68233299 C81.3300127 61.94889962 80.99295725 53.55043927 79 45 C78.5978125 43.2365625 78.5978125 43.2365625 78.1875 41.4375 C77.22060519 38.8287006 77.22060519 38.8287006 74.765625 37.87109375 C68.99658364 36.05400869 63.15898065 36.04045305 57.625 38.5 C52.27681466 43.59350985 49.19012687 48.95483949 48.84178162 56.36627197 C48.82122075 57.7210043 48.80587696 59.075822 48.79467773 60.43066406 C48.78477814 61.17251953 48.77487854 61.914375 48.76467896 62.67871094 C48.73315853 65.12431679 48.70834405 67.56994205 48.68359375 70.015625 C48.66301605 71.7138519 48.64201936 73.41207377 48.62062073 75.11029053 C48.56548433 79.5752759 48.51603793 84.04030685 48.46777344 88.50537109 C48.4086538 93.86523411 48.34247229 99.22501402 48.27747345 104.58480835 C48.17957004 112.72315471 48.09064145 120.86155492 48 129 C32.16 129 16.32 129 0 129 C0 86.43 0 43.86 0 0 Z " fill="#000000" transform="translate(232,221)"/>
<path d="M0 0 C15.84 0 31.68 0 48 0 C48 42.57 48 85.14 48 129 C32.16 129 16.32 129 0 129 C0 86.43 0 43.86 0 0 Z " fill="#000000" transform="translate(162,221)"/>
<path d="M0 0 C5.26911382 5.39165135 8.04410078 10.91046153 8.4375 18.4375 C8.1924896 24.88572836 5.68966809 30.0568817 1.5 34.875 C0.675 35.57625 -0.15 36.2775 -1 37 C-1.639375 37.556875 -2.27875 38.11375 -2.9375 38.6875 C-8.28435909 42.0900467 -13.81874987 42.77514069 -20 42 C-27.73500008 40.13129968 -32.51432342 36.51865866 -37 30 C-40.37642226 23.86105043 -40.57102758 16.90478167 -38.85546875 10.23828125 C-36.44720462 3.9372066 -31.98676346 -0.94792451 -26 -4 C-17.12520172 -7.34110053 -7.30576327 -6.2620828 0 0 Z " fill="#000000" transform="translate(202,168)"/>
</svg>
