<?xml version="1.0" encoding="UTF-8"?>
<svg version="1.1" xmlns="http://www.w3.org/2000/svg" width="512" height="512">
<path d="M0 0 C1.01790619 0.00215515 2.03581238 0.0043103 3.08456421 0.00653076 C17.69363523 0.05620146 32.02575853 0.30709809 46.375 3.3125 C47.34985352 3.51117676 48.32470703 3.70985352 49.32910156 3.91455078 C92.59881524 12.96579926 132.80019334 31.35020671 166.375 60.3125 C167.12007813 60.94671875 167.86515625 61.5809375 168.6328125 62.234375 C182.13779833 74.04551515 194.80918743 86.79610228 205.375 101.3125 C206.23149066 102.46244831 207.08826433 103.61218589 207.9453125 104.76171875 C213.9859414 112.95339526 219.34505071 121.46895078 224.375 130.3125 C224.73948242 130.94430176 225.10396484 131.57610352 225.47949219 132.22705078 C247.08534998 169.97532572 256.85198095 212.74189997 256.6875 255.9375 C256.68534485 256.95540619 256.6831897 257.97331238 256.68096924 259.02206421 C256.63129854 273.63113523 256.38040191 287.96325853 253.375 302.3125 C253.07698486 303.77478027 253.07698486 303.77478027 252.77294922 305.26660156 C240.30899799 364.85082385 208.33955313 421.10212629 159.375 458.3125 C158.83472168 458.72918945 158.29444336 459.14587891 157.73779297 459.57519531 C147.7427884 467.2584873 137.28290964 474.00092968 126.375 480.3125 C125.69775879 480.70679199 125.02051758 481.10108398 124.32275391 481.50732422 C98.34595271 496.44860428 68.93794741 505.83676312 39.375 510.3125 C38.25689941 510.48982666 37.13879883 510.66715332 35.98681641 510.84985352 C25.22545702 512.39416151 14.5855899 512.65229671 3.72314453 512.62817383 C0.77468385 512.62502635 -2.17275697 512.64852578 -5.12109375 512.67382812 C-18.51105903 512.71844438 -31.42266733 511.51675057 -44.625 509.3125 C-45.76195312 509.12437744 -46.89890625 508.93625488 -48.0703125 508.74243164 C-91.33774735 500.97113308 -132.38813234 480.98328041 -165.625 452.3125 C-166.37007813 451.67828125 -167.11515625 451.0440625 -167.8828125 450.390625 C-181.38779833 438.57948485 -194.05918743 425.82889772 -204.625 411.3125 C-205.48149066 410.16255169 -206.33826433 409.01281411 -207.1953125 407.86328125 C-213.2359414 399.67160474 -218.59505071 391.15604922 -223.625 382.3125 C-223.98948242 381.68069824 -224.35396484 381.04889648 -224.72949219 380.39794922 C-246.33534998 342.64967428 -256.10198095 299.88310003 -255.9375 256.6875 C-255.93534485 255.66959381 -255.9331897 254.65168762 -255.93096924 253.60293579 C-255.88129854 238.99386477 -255.63040191 224.66174147 -252.625 210.3125 C-252.42632324 209.33764648 -252.22764648 208.36279297 -252.02294922 207.35839844 C-242.97170074 164.08868476 -224.58729329 123.88730666 -195.625 90.3125 C-194.99078125 89.56742187 -194.3565625 88.82234375 -193.703125 88.0546875 C-181.89198485 74.54970167 -169.14139772 61.87831257 -154.625 51.3125 C-153.47505169 50.45600934 -152.32531411 49.59923567 -151.17578125 48.7421875 C-142.98410474 42.7015586 -134.46854922 37.34244929 -125.625 32.3125 C-124.99319824 31.94801758 -124.36139648 31.58353516 -123.71044922 31.20800781 C-85.96217428 9.60215002 -43.19560003 -0.16448095 0 0 Z M-95.77587891 54.35839844 C-97.85038084 55.42879104 -99.94572486 56.45148242 -102.04296875 57.4765625 C-132.18187899 72.47270591 -160.13657521 95.76364533 -179.625 123.3125 C-180.10630371 123.99248047 -180.58760742 124.67246094 -181.08349609 125.37304688 C-205.32238871 159.99337088 -222.4523624 201.67198407 -222.86328125 244.46484375 C-222.87312042 245.31402374 -222.88295959 246.16320374 -222.89309692 247.03811646 C-223.35882537 297.69863745 -211.48133159 344.71240755 -181.625 386.3125 C-181.191875 386.91674805 -180.75875 387.52099609 -180.3125 388.14355469 C-174.04270179 396.78901863 -167.01230227 404.61976119 -159.625 412.3125 C-159.13773438 412.82699707 -158.65046875 413.34149414 -158.1484375 413.87158203 C-150.56549564 421.8574944 -142.44648895 428.73421757 -133.625 435.3125 C-133.06586914 435.73772949 -132.50673828 436.16295898 -131.93066406 436.60107422 C-123.01027299 443.37338513 -113.62592704 448.9594508 -103.73242188 454.19580078 C-101.86070826 455.18760083 -99.99982808 456.19978557 -98.140625 457.21484375 C-47.58022459 483.88605976 14.21200084 486.40116474 68.20776367 469.74169922 C91.9727151 462.03971738 114.54036933 450.48711943 134.375 435.3125 C135.3134375 434.60480469 136.251875 433.89710938 137.21875 433.16796875 C143.94786277 427.94012956 150.19748069 422.17201545 156.375 416.3125 C156.87821777 415.83796387 157.38143555 415.36342773 157.89990234 414.87451172 C165.89756146 407.28329523 172.79515156 399.15052128 179.375 390.3125 C180.02082031 389.45785156 180.02082031 389.45785156 180.6796875 388.5859375 C187.44514523 379.60632997 193.10285384 370.23369855 198.375 360.3125 C198.71772949 359.68150391 199.06045898 359.05050781 199.41357422 358.40039062 C209.62942475 339.52380708 215.89314281 319.23873832 220.375 298.3125 C220.55434082 297.51247559 220.73368164 296.71245117 220.91845703 295.88818359 C232.61439332 241.58977034 218.06256963 181.36665206 188.59765625 135.17578125 C156.65930536 86.50295896 108.00777654 51.93234937 51.375 38.3125 C50.14015869 38.01520996 50.14015869 38.01520996 48.88037109 37.71191406 C1.60207517 26.73246253 -52.48747641 31.83813696 -95.77587891 54.35839844 Z " fill="#000000" transform="translate(255.625,-0.3125)"/>
<path d="M0 0 C1.77494012 -0.00435239 3.54987836 -0.0095373 5.32481384 -0.01548767 C10.12660769 -0.02883318 14.92832262 -0.02946123 19.73013139 -0.02692437 C23.74823404 -0.02585149 27.76632093 -0.03074622 31.78442019 -0.03552979 C41.26970368 -0.04660993 50.75494756 -0.04707101 60.24023438 -0.04101562 C70.00309557 -0.03497854 79.76581255 -0.04728357 89.52864915 -0.06858569 C97.93065645 -0.08623981 106.33261801 -0.09219699 114.73464316 -0.08894795 C119.74391491 -0.08714078 124.7530838 -0.08971436 129.76233864 -0.10366249 C134.47628652 -0.11629809 139.19001075 -0.11424283 143.90395546 -0.1012516 C145.62597227 -0.09889859 147.3480051 -0.10157435 149.07000351 -0.10987473 C169.74522698 -0.20228397 185.30521674 4.94351758 200.57885742 19.2590332 C204.77233175 23.59936072 207.87702118 28.33013795 210.77416992 33.5871582 C211.09981934 34.16667236 211.42546875 34.74618652 211.76098633 35.34326172 C217.7002835 46.69525692 217.89832569 58.66129965 217.84985352 71.15356445 C217.85392645 72.92894817 217.85927236 74.70432936 217.86578369 76.47970581 C217.87937729 81.26896847 217.87419174 86.05803571 217.86464643 90.84730148 C217.85700837 95.87851202 217.8641069 100.90970672 217.86880493 105.94091797 C217.87425046 114.38715595 217.86710252 122.83331503 217.8527832 131.27954102 C217.83645904 141.02031942 217.84174839 150.76090939 217.85826242 160.50168324 C217.87191164 168.89101928 217.87378019 177.28029887 217.86594641 185.66964245 C217.86128875 190.66880058 217.86059226 195.66787038 217.87055588 200.66702271 C217.87927344 205.36871205 217.87311684 210.07016035 217.85587311 214.77182388 C217.85193371 216.48900072 217.85299819 218.20619812 217.8596611 219.92336655 C217.92845592 239.46711034 213.39136591 255.83418162 199.7409668 270.26318359 C186.51811499 283.46562976 170.11866974 288.51229112 151.91412354 288.55682373 C150.24523896 288.55453045 148.57635467 288.55202082 146.9074707 288.54931641 C145.13090807 288.55366876 143.35434731 288.55885365 141.57778931 288.56480408 C136.77193052 288.57814905 131.96615059 288.57877777 127.16027689 288.57624078 C123.13959465 288.575168 119.11892817 288.58006228 115.09824932 288.5848462 C105.60821207 288.59592584 96.11821441 288.59638749 86.62817383 288.59033203 C76.85734028 288.58429301 67.08665077 288.59660502 57.31584179 288.6179021 C48.90875463 288.63554892 40.50171318 288.6415146 32.09460819 288.63826436 C27.08145597 288.63645626 22.0684065 288.6390403 17.05527115 288.6529789 C12.33886404 288.66560282 7.62268059 288.66357014 2.9062767 288.65056801 C1.1822273 288.64821259 -0.54183807 288.65089953 -2.26586914 288.65919113 C-21.34799956 288.7442987 -38.48576698 283.9931906 -52.57739258 270.55395508 C-67.39439558 255.55173953 -70.84571718 237.91408968 -70.81298828 217.73632812 C-70.81734068 215.96138801 -70.82252558 214.18644976 -70.82847595 212.41151428 C-70.84182147 207.60972043 -70.84244951 202.80800551 -70.83991265 198.00619674 C-70.83883977 193.98809409 -70.8437345 189.97000719 -70.84851807 185.95190793 C-70.85959821 176.46662445 -70.86005929 166.98138057 -70.85400391 157.49609375 C-70.84796682 147.73323255 -70.86027186 137.97051557 -70.88157398 128.20767897 C-70.89922809 119.80567167 -70.90518527 111.40371011 -70.90193623 103.00168496 C-70.90012907 97.99241322 -70.90270264 92.98324432 -70.91665077 87.97398949 C-70.92928637 83.26004161 -70.92723111 78.54631737 -70.91423988 73.83237267 C-70.91188687 72.11035586 -70.91456263 70.38832303 -70.92286301 68.66632462 C-71.01029957 49.10366592 -66.48186832 32.72976658 -52.81762695 18.28613281 C-37.8953438 3.38687788 -20.15698768 -0.03269521 0 0 Z M-30.91333008 43.5871582 C-39.3312841 54.41364864 -38.68860868 66.63433077 -38.68359375 79.69580078 C-38.68658957 81.25546855 -38.68999307 82.81513557 -38.69377136 84.37480164 C-38.70257234 88.59394418 -38.70494782 92.81306642 -38.70558715 97.03221726 C-38.70629985 99.67297146 -38.70843833 102.31372057 -38.71108437 104.9544735 C-38.72032476 114.18075257 -38.72442088 123.40701723 -38.72363281 132.63330078 C-38.72303232 141.2117734 -38.73358194 149.79018307 -38.74937648 158.36863977 C-38.76248322 165.75235437 -38.7678154 173.13604848 -38.7671774 180.51977462 C-38.76692335 184.92147297 -38.76972345 189.32311533 -38.78035545 193.72480202 C-38.7900894 197.86743291 -38.79007958 202.00995489 -38.78283882 206.1525898 C-38.78179955 207.66539419 -38.78411642 209.17820556 -38.79019928 210.69099808 C-38.84160625 224.37124804 -38.44847297 236.47509733 -28.90551758 247.09106445 C-18.12564917 257.09377956 -4.92365249 256.42522285 8.8828125 256.41992188 C10.44248026 256.4229177 12.00214729 256.4263212 13.56181335 256.43009949 C17.7809559 256.43890046 22.00007814 256.44127595 26.21922898 256.44191527 C28.85998318 256.44262797 31.50073228 256.44476645 34.14148521 256.44741249 C43.36776429 256.45665288 52.59402895 256.460749 61.8203125 256.45996094 C70.39878511 256.45936044 78.97719479 256.46991006 87.55565149 256.4857046 C94.93936609 256.49881135 102.3230602 256.50414352 109.70678633 256.50350553 C114.10848469 256.50325147 118.51012705 256.50605158 122.91181374 256.51668358 C127.05444463 256.52641752 131.19696661 256.52640771 135.33960152 256.51916695 C136.85240591 256.51812767 138.36521728 256.52044455 139.8780098 256.5265274 C153.6223846 256.57817534 165.54447863 256.11795119 176.27807617 246.67700195 C183.88570737 238.61176888 185.57987498 228.15912331 185.59538269 217.43267822 C185.59878103 216.45529603 185.59878103 216.45529603 185.60224801 215.45816875 C185.60853244 213.29444101 185.60776225 211.13077681 185.60693359 208.96704102 C185.60992859 207.40752075 185.6133319 205.84800123 185.61711121 204.28848267 C185.62592152 200.06514881 185.62828809 195.84183524 185.62892699 191.61849308 C185.62963927 188.97556665 185.63177697 186.33264532 185.63442421 183.68972015 C185.64366836 174.45696182 185.64776033 165.22421789 185.64697266 155.99145508 C185.64637237 147.40561885 185.65691702 138.81984555 185.67271632 130.23402524 C185.68582346 122.84608455 185.69115521 115.45816434 185.69051725 108.07021213 C185.69026316 103.66514544 185.6930648 99.26013469 185.7036953 94.85507965 C185.71342965 90.70835816 185.71341915 86.56174548 185.70617867 82.41501999 C185.70513937 80.90060389 185.70745638 79.38618082 185.71353912 77.87177658 C185.76490721 64.18693589 185.37528905 52.07808618 175.82885742 41.45825195 C165.04898901 31.45553685 151.84699233 32.12409356 138.04052734 32.12939453 C136.48085958 32.12639871 134.92119255 32.12299521 133.36152649 32.11921692 C129.14238394 32.11041594 124.9232617 32.10804046 120.70411086 32.10740113 C118.06335666 32.10668843 115.42260756 32.10454995 112.78185463 32.10190392 C103.55557556 32.09266352 94.32931089 32.08856741 85.10302734 32.08935547 C76.52455473 32.08995596 67.94614505 32.07940634 59.36768836 32.06361181 C51.98397375 32.05050506 44.60027965 32.04517288 37.21655351 32.04581088 C32.81485516 32.04606494 28.41321279 32.04326483 24.01152611 32.03263283 C19.86889521 32.02289888 15.72637323 32.0229087 11.58373833 32.03014946 C10.07093393 32.03118874 8.55812257 32.02887186 7.04533005 32.022789 C-7.30247329 31.96887353 -20.55772848 32.42698606 -30.91333008 43.5871582 Z " fill="#000000" transform="translate(182.538330078125,111.725341796875)"/>
<path d="M0 0 C11.28842857 9.61041892 19.9057793 23.08669566 22.3515625 37.90234375 C23.95349172 58.41706182 21.02281318 76.82742608 7.41992188 92.86889648 C-2.88378928 104.31118958 -17.69276286 112.87804946 -33.23925781 114.10717773 C-53.4598821 114.83144909 -70.75095513 111.45517734 -86.1484375 97.58984375 C-97.68281514 86.67787225 -105.32670171 71.37580381 -105.984375 55.44921875 C-106.15233202 44.59140071 -106.07734136 34.97991516 -101.6484375 24.90234375 C-101.10509766 23.59136719 -101.10509766 23.59136719 -100.55078125 22.25390625 C-92.83695149 5.25733219 -78.61527656 -5.32160524 -61.82421875 -12.265625 C-40.21877519 -18.98381402 -17.34376392 -13.73687496 0 0 Z M-66.0234375 29.21484375 C-66.93783515 30.41499067 -67.81391498 31.6453442 -68.6484375 32.90234375 C-69.0609375 33.52367187 -69.4734375 34.145 -69.8984375 34.78515625 C-73.7324734 41.78759681 -73.88673561 50.14851444 -72.6484375 57.90234375 C-69.57960146 67.80326001 -63.59236364 74.44725511 -54.5859375 79.33984375 C-46.73301931 82.47829375 -37.11380695 82.15707036 -29.2109375 79.33984375 C-20.82115845 75.35400187 -15.31036345 69.40492718 -11.6484375 60.90234375 C-8.97479319 52.76143961 -9.70178362 42.82348169 -13.33984375 35.14453125 C-18.58478552 26.1576758 -25.98407703 20.99150007 -36.0703125 18.2421875 C-47.36338546 16.50017093 -58.32458511 20.89698816 -66.0234375 29.21484375 Z " fill="#000000" transform="translate(297.6484375,206.09765625)"/>
<path d="M0 0 C4.68796317 2.8950501 8.77605467 6.42344712 10.234375 11.89453125 C11.16656452 18.74158704 11.3930195 24.99387098 7.671875 31.01953125 C3.66347868 35.99068326 0.31000422 38.47580101 -6.0078125 39.3359375 C-13.1275177 39.69575056 -18.34453314 39.19135672 -23.98828125 34.640625 C-29.08369757 29.63479842 -30.03494232 26.05750776 -30.390625 19.01953125 C-30.17838344 12.13997715 -28.58962241 7.80486419 -23.765625 2.89453125 C-17.29271618 -2.6344117 -7.84970384 -3.13766411 0 0 Z " fill="#000000" transform="translate(337.765625,165.10546875)"/>
</svg>
