<?xml version="1.0" encoding="UTF-8"?>
<svg version="1.1" xmlns="http://www.w3.org/2000/svg" width="512" height="512">
<path d="M0 0 C2.3046875 1.78125 2.3046875 1.78125 4.109375 4 C6.8029884 6.18556532 8.74792395 6.24065283 12.15966797 6.06054688 C15.69998439 5.59957237 18.98536797 4.65305628 22.3671875 3.53125 C23.03556641 3.32628906 23.70394531 3.12132812 24.39257812 2.91015625 C27.89118666 1.78815351 31.00290145 0.47123564 34.17578125 -1.390625 C37.3046875 -3.21875 37.3046875 -3.21875 39.3046875 -3.21875 C37.7182438 6.94891188 30.60896991 14.06131018 23.3046875 20.78125 C24.46226562 20.50410156 25.61984375 20.22695312 26.8125 19.94140625 C28.35153749 19.57541563 29.89060139 19.20953609 31.4296875 18.84375 C32.19023437 18.66134766 32.95078125 18.47894531 33.734375 18.29101562 C37.90897184 17.30134827 42.05928589 16.42552021 46.3046875 15.78125 C41.91649019 26.08397413 32.49739758 37.68489496 22.3046875 42.78125 C22.29066895 43.66925293 22.29066895 43.66925293 22.27636719 44.57519531 C21.40714007 88.80351641 5.81481257 128.32422591 -25.6953125 159.78125 C-56.18429755 188.36202319 -94.32816237 197.75432058 -135.11279297 196.921875 C-159.56767616 195.96194501 -184.30178667 188.37693389 -204.6953125 174.78125 C-204.6953125 174.12125 -204.6953125 173.46125 -204.6953125 172.78125 C-204.00195801 172.7719043 -203.30860352 172.76255859 -202.59423828 172.75292969 C-176.70209715 172.31632886 -155.26992254 168.81948454 -133.6953125 153.78125 C-136.7829111 152.11365547 -139.83634997 151.09150634 -143.1953125 150.09375 C-158.04153895 145.18725321 -168.57484647 136.6820324 -175.6953125 122.78125 C-177.02265965 119.8014002 -177.6953125 118.06757916 -177.6953125 114.78125 C-171.4253125 115.11125 -165.1553125 115.44125 -158.6953125 115.78125 C-158.6953125 115.12125 -158.6953125 114.46125 -158.6953125 113.78125 C-159.3553125 113.69875 -160.0153125 113.61625 -160.6953125 113.53125 C-171.82022381 110.75002217 -181.03216386 102.88757625 -187.16796875 93.40234375 C-192.35163158 84.50659501 -196.6953125 74.27398676 -196.6953125 63.78125 C-192.42300924 64.38792983 -188.57298829 65.40625438 -184.5078125 66.84375 C-180.20128557 68.37471512 -180.20128557 68.37471512 -175.6953125 68.78125 C-176.2521875 68.29398437 -176.8090625 67.80671875 -177.3828125 67.3046875 C-188.74320332 56.75027036 -195.43697807 43.67698162 -196.1328125 28.03125 C-195.89142358 18.8946793 -193.83162306 8.41948835 -188.6953125 0.78125 C-184.78381036 4.05599598 -181.0122264 7.41998919 -177.31591797 10.93725586 C-150.37887228 36.39312926 -118.18224193 50.09660248 -81.6953125 54.78125 C-82.0253125 53.79125 -82.3553125 52.80125 -82.6953125 51.78125 C-83.7835754 34.54744733 -80.47514584 21.89529762 -70.5078125 7.65625 C-52.45037256 -12.57954777 -21.86061647 -14.61804141 0 0 Z " fill="#000000" transform="translate(335.6953125,162.21875)"/>
<path d="M0 0 C44.74561703 40.75358172 67.03193876 96.65274076 69.94042969 156.36962891 C71.14228775 214.83648888 47.55758607 270.09626233 7.48730469 312.06103516 C-32.33870728 352.98675588 -87.63172386 375.83335271 -144.51928711 376.83251953 C-203.96297847 377.20752573 -258.97066485 353.97566028 -301.39453125 312.68530273 C-342.16817484 272.24125209 -363.38638176 216.53021212 -364.49316406 159.60009766 C-363.23537831 98.41251998 -339.27211203 43.1521987 -295.37988281 0.55322266 C-224.95232272 -66.43102217 -112.19065002 -76.29679139 0 0 Z M-190.24316406 -30.39990234 C-191.14228516 -30.1855957 -192.04140625 -29.97128906 -192.96777344 -29.75048828 C-235.5454428 -19.28131904 -274.62095961 5.62495321 -301.24316406 40.60009766 C-301.68595703 41.17228027 -302.12875 41.74446289 -302.58496094 42.33398438 C-328.2640887 75.80667458 -341.73433934 116.90729915 -341.61816406 158.97509766 C-341.6172879 159.75767944 -341.61641174 160.54026123 -341.61550903 161.34655762 C-341.50861912 190.49310567 -335.21054684 218.43528516 -322.24316406 244.60009766 C-321.9005957 245.30682617 -321.55802734 246.01355469 -321.20507812 246.74169922 C-303.17177129 283.69905404 -272.58394101 313.69668449 -236.24316406 332.60009766 C-235.57446289 332.94814453 -234.90576172 333.29619141 -234.21679688 333.65478516 C-217.24443451 342.34934152 -199.02515316 348.31268407 -180.24316406 351.60009766 C-179.25219727 351.77669922 -178.26123047 351.95330078 -177.24023438 352.13525391 C-167.4258176 353.72142227 -157.78306028 353.99955174 -147.86816406 353.97509766 C-147.03511749 353.97455383 -146.20207092 353.97401001 -145.34378052 353.97344971 C-131.3257282 353.93153421 -117.91260782 352.90430095 -104.24316406 349.60009766 C-102.89448242 349.2786377 -102.89448242 349.2786377 -101.51855469 348.95068359 C-58.89692023 338.47070404 -19.94323983 313.55292412 6.75683594 278.60009766 C7.2010791 278.02646484 7.64532227 277.45283203 8.10302734 276.86181641 C33.77933803 243.39012494 47.2480037 202.29017337 47.13183594 160.22509766 C47.13095978 159.44251587 47.13008362 158.65993408 47.12918091 157.8536377 C47.022291 128.70708964 40.72421872 100.76491015 27.75683594 74.60009766 C27.41426758 73.89336914 27.07169922 73.18664062 26.71875 72.45849609 C13.25599089 44.86799537 -7.47984339 20.68286073 -32.24316406 2.60009766 C-33.09056152 1.97820557 -33.09056152 1.97820557 -33.95507812 1.34375 C-66.98138857 -22.55911324 -106.07357251 -34.87558739 -146.68066406 -34.77490234 C-147.92648758 -34.77408661 -147.92648758 -34.77408661 -149.19747925 -34.77325439 C-163.19640871 -34.7312957 -176.59249144 -33.69956824 -190.24316406 -30.39990234 Z " fill="#000000" transform="translate(403.2431640625,96.39990234375)"/>
</svg>
