<?xml version="1.0" encoding="UTF-8"?>
<svg version="1.1" xmlns="http://www.w3.org/2000/svg" width="512" height="512">
<path d="M0 0 C6.17395874 0.01139332 12.34774509 0.00459386 18.521698 -0.00685883 C41.91506582 -0.04388743 65.28760514 0.08049835 88.66210938 1.08886719 C89.5392157 1.12342766 90.41632202 1.15798813 91.32000732 1.19359589 C106.21932998 1.80230461 121.28329086 2.53372026 132.63085938 13.38183594 C148.14408643 31.0078719 147.56128976 60.11818258 147.58007812 82.19433594 C147.58330747 83.6027886 147.58667265 85.01124096 147.59016418 86.41969299 C147.59610386 89.35687026 147.59800966 92.29401834 147.59741211 95.23120117 C147.59733122 98.19317785 147.60422278 101.15499865 147.61791992 104.11694336 C147.92102714 170.73337891 147.92102714 170.73337891 132.18554688 187.66699219 C120.03221371 198.58893037 104.13425108 198.82297103 88.66210938 199.43261719 C87.7493927 199.4719915 86.83667603 199.51136581 85.89630127 199.55193329 C62.21564333 200.56185858 38.52222164 200.56544418 14.82421875 200.52148438 C8.65026001 200.51009105 2.47647366 200.51689052 -3.69747925 200.5283432 C-27.09084707 200.56537181 -50.46338639 200.44098603 -73.83789062 199.43261719 C-75.15355011 199.38077648 -75.15355011 199.38077648 -76.49578857 199.32788849 C-91.39511123 198.71917977 -106.45907211 197.98776411 -117.80664062 187.13964844 C-133.80964739 168.95712769 -132.57184049 139.0916166 -133.21289062 116.32324219 C-133.23501617 115.5443866 -133.25714172 114.76553101 -133.27993774 113.96307373 C-135.42907504 34.64770461 -135.42907504 34.64770461 -118.56835938 14.29980469 C-109.26335831 4.71950773 -97.47311823 2.40247399 -84.59960938 1.734375 C-83.41542671 1.67078167 -83.41542671 1.67078167 -82.20732117 1.60590363 C-79.56363643 1.46835217 -76.91966692 1.33952331 -74.27539062 1.21386719 C-72.88009125 1.14731304 -72.88009125 1.14731304 -71.456604 1.07941437 C-47.64452787 -0.0214023 -23.83291988 -0.04440807 0 0 Z M-20.58789062 57.26074219 C-20.58789062 83.00074219 -20.58789062 108.74074219 -20.58789062 135.26074219 C-16.32291121 133.55475042 -12.28958003 131.64906826 -8.21679688 129.54980469 C-7.15078247 129.00315659 -7.15078247 129.00315659 -6.06323242 128.44546509 C-3.75753913 127.26161547 -1.45383905 126.0739531 0.84960938 124.88574219 C1.63433624 124.48190308 2.41906311 124.07806396 3.22756958 123.6619873 C13.71800349 118.26131136 24.14219529 112.76434531 34.47290039 107.06298828 C40.7070826 103.62450002 46.99468848 100.34760287 53.41210938 97.26074219 C53.41210938 96.60074219 53.41210938 95.94074219 53.41210938 95.26074219 C52.52765137 94.80860352 51.64319336 94.35646484 50.73193359 93.890625 C33.9859086 85.32411341 17.31237211 76.66805413 0.8359375 67.59082031 C-3.20823756 65.37157517 -7.26880843 63.18392322 -11.33789062 61.01074219 C-12.04816406 60.62724609 -12.7584375 60.24375 -13.49023438 59.84863281 C-16.85200738 57.9137153 -16.85200738 57.9137153 -20.58789062 57.26074219 Z " fill="#000000" transform="translate(248.587890625,155.7392578125)"/>
<path d="M0 0 C1.01790619 0.00215515 2.03581238 0.0043103 3.08456421 0.00653076 C17.69363523 0.05620146 32.02575853 0.30709809 46.375 3.3125 C47.34985352 3.51117676 48.32470703 3.70985352 49.32910156 3.91455078 C92.59881524 12.96579926 132.80019334 31.35020671 166.375 60.3125 C167.12007813 60.94671875 167.86515625 61.5809375 168.6328125 62.234375 C182.13779833 74.04551515 194.80918743 86.79610228 205.375 101.3125 C206.23149066 102.46244831 207.08826433 103.61218589 207.9453125 104.76171875 C213.9859414 112.95339526 219.34505071 121.46895078 224.375 130.3125 C224.73948242 130.94430176 225.10396484 131.57610352 225.47949219 132.22705078 C247.08534998 169.97532572 256.85198095 212.74189997 256.6875 255.9375 C256.68534485 256.95540619 256.6831897 257.97331238 256.68096924 259.02206421 C256.63129854 273.63113523 256.38040191 287.96325853 253.375 302.3125 C253.07698486 303.77478027 253.07698486 303.77478027 252.77294922 305.26660156 C240.30899799 364.85082385 208.33955313 421.10212629 159.375 458.3125 C158.83472168 458.72918945 158.29444336 459.14587891 157.73779297 459.57519531 C147.7427884 467.2584873 137.28290964 474.00092968 126.375 480.3125 C125.69775879 480.70679199 125.02051758 481.10108398 124.32275391 481.50732422 C98.34595271 496.44860428 68.93794741 505.83676312 39.375 510.3125 C38.25689941 510.48982666 37.13879883 510.66715332 35.98681641 510.84985352 C25.22545702 512.39416151 14.5855899 512.65229671 3.72314453 512.62817383 C0.77468385 512.62502635 -2.17275697 512.64852578 -5.12109375 512.67382812 C-18.51105903 512.71844438 -31.42266733 511.51675057 -44.625 509.3125 C-45.76195312 509.12437744 -46.89890625 508.93625488 -48.0703125 508.74243164 C-91.33774735 500.97113308 -132.38813234 480.98328041 -165.625 452.3125 C-166.37007813 451.67828125 -167.11515625 451.0440625 -167.8828125 450.390625 C-181.38779833 438.57948485 -194.05918743 425.82889772 -204.625 411.3125 C-205.48149066 410.16255169 -206.33826433 409.01281411 -207.1953125 407.86328125 C-213.2359414 399.67160474 -218.59505071 391.15604922 -223.625 382.3125 C-223.98948242 381.68069824 -224.35396484 381.04889648 -224.72949219 380.39794922 C-246.33534998 342.64967428 -256.10198095 299.88310003 -255.9375 256.6875 C-255.93534485 255.66959381 -255.9331897 254.65168762 -255.93096924 253.60293579 C-255.88129854 238.99386477 -255.63040191 224.66174147 -252.625 210.3125 C-252.42632324 209.33764648 -252.22764648 208.36279297 -252.02294922 207.35839844 C-242.97170074 164.08868476 -224.58729329 123.88730666 -195.625 90.3125 C-194.99078125 89.56742187 -194.3565625 88.82234375 -193.703125 88.0546875 C-181.89198485 74.54970167 -169.14139772 61.87831257 -154.625 51.3125 C-153.47505169 50.45600934 -152.32531411 49.59923567 -151.17578125 48.7421875 C-142.98410474 42.7015586 -134.46854922 37.34244929 -125.625 32.3125 C-124.99319824 31.94801758 -124.36139648 31.58353516 -123.71044922 31.20800781 C-85.96217428 9.60215002 -43.19560003 -0.16448095 0 0 Z M-95.77587891 54.35839844 C-97.85038084 55.42879104 -99.94572486 56.45148242 -102.04296875 57.4765625 C-132.18187899 72.47270591 -160.13657521 95.76364533 -179.625 123.3125 C-180.10630371 123.99248047 -180.58760742 124.67246094 -181.08349609 125.37304688 C-205.32238871 159.99337088 -222.4523624 201.67198407 -222.86328125 244.46484375 C-222.87312042 245.31402374 -222.88295959 246.16320374 -222.89309692 247.03811646 C-223.35882537 297.69863745 -211.48133159 344.71240755 -181.625 386.3125 C-181.191875 386.91674805 -180.75875 387.52099609 -180.3125 388.14355469 C-174.04270179 396.78901863 -167.01230227 404.61976119 -159.625 412.3125 C-159.13773438 412.82699707 -158.65046875 413.34149414 -158.1484375 413.87158203 C-150.56549564 421.8574944 -142.44648895 428.73421757 -133.625 435.3125 C-133.06586914 435.73772949 -132.50673828 436.16295898 -131.93066406 436.60107422 C-123.01027299 443.37338513 -113.62592704 448.9594508 -103.73242188 454.19580078 C-101.86070826 455.18760083 -99.99982808 456.19978557 -98.140625 457.21484375 C-47.58022459 483.88605976 14.21200084 486.40116474 68.20776367 469.74169922 C91.9727151 462.03971738 114.54036933 450.48711943 134.375 435.3125 C135.3134375 434.60480469 136.251875 433.89710938 137.21875 433.16796875 C143.94786277 427.94012956 150.19748069 422.17201545 156.375 416.3125 C156.87821777 415.83796387 157.38143555 415.36342773 157.89990234 414.87451172 C165.89756146 407.28329523 172.79515156 399.15052128 179.375 390.3125 C180.02082031 389.45785156 180.02082031 389.45785156 180.6796875 388.5859375 C187.44514523 379.60632997 193.10285384 370.23369855 198.375 360.3125 C198.71772949 359.68150391 199.06045898 359.05050781 199.41357422 358.40039062 C209.62942475 339.52380708 215.89314281 319.23873832 220.375 298.3125 C220.55434082 297.51247559 220.73368164 296.71245117 220.91845703 295.88818359 C232.61439332 241.58977034 218.06256963 181.36665206 188.59765625 135.17578125 C156.65930536 86.50295896 108.00777654 51.93234937 51.375 38.3125 C50.14015869 38.01520996 50.14015869 38.01520996 48.88037109 37.71191406 C1.60207517 26.73246253 -52.48747641 31.83813696 -95.77587891 54.35839844 Z " fill="#000000" transform="translate(255.625,-0.3125)"/>
</svg>
